<svg xmlns="http://www.w3.org/2000/svg" xmlns:xlink="http://www.w3.org/1999/xlink" width="500" zoomAndPan="magnify" viewBox="0 0 375 374.999991" height="500" preserveAspectRatio="xMidYMid meet" version="1.0"><defs><g/><clipPath id="64055552e1"><path d="M 22.851562 45.703125 L 352.101562 45.703125 L 352.101562 374.953125 L 22.851562 374.953125 Z M 22.851562 45.703125 " clip-rule="nonzero"/></clipPath><clipPath id="f2df7df8c5"><path d="M 187.5 45.703125 C 96.566406 45.703125 22.851562 119.417969 22.851562 210.351562 C 22.851562 301.28125 96.566406 375 187.5 375 C 278.433594 375 352.148438 301.28125 352.148438 210.351562 C 352.148438 119.417969 278.433594 45.703125 187.5 45.703125 Z M 187.5 45.703125 " clip-rule="nonzero"/></clipPath><clipPath id="8a2e3fd87c"><path d="M 32.617188 55.46875 L 342.382812 55.46875 L 342.382812 365.234375 L 32.617188 365.234375 Z M 32.617188 55.46875 " clip-rule="nonzero"/></clipPath><clipPath id="b6f7058fbb"><path d="M 187.5 55.46875 C 101.960938 55.46875 32.617188 124.8125 32.617188 210.351562 C 32.617188 295.890625 101.960938 365.234375 187.5 365.234375 C 273.039062 365.234375 342.382812 295.890625 342.382812 210.351562 C 342.382812 124.8125 273.039062 55.46875 187.5 55.46875 Z M 187.5 55.46875 " clip-rule="nonzero"/></clipPath><clipPath id="89e35186d0"><path d="M 91.933594 114.78125 L 283.066406 114.78125 L 283.066406 305.917969 L 91.933594 305.917969 Z M 91.933594 114.78125 " clip-rule="nonzero"/></clipPath><clipPath id="c3b40d0019"><path d="M 187.5 114.78125 C 134.71875 114.78125 91.933594 157.570312 91.933594 210.351562 C 91.933594 263.132812 134.71875 305.917969 187.5 305.917969 C 240.28125 305.917969 283.066406 263.132812 283.066406 210.351562 C 283.066406 157.570312 240.28125 114.78125 187.5 114.78125 Z M 187.5 114.78125 " clip-rule="nonzero"/></clipPath><clipPath id="6485073de2"><path d="M 91.933594 114.78125 L 283.066406 114.78125 L 283.066406 305.914062 L 91.933594 305.914062 Z M 91.933594 114.78125 " clip-rule="nonzero"/></clipPath><clipPath id="d9109479a7"><path d="M 187.5 114.78125 C 134.71875 114.78125 91.933594 157.570312 91.933594 210.347656 C 91.933594 263.128906 134.71875 305.914062 187.5 305.914062 C 240.277344 305.914062 283.066406 263.128906 283.066406 210.347656 C 283.066406 157.570312 240.277344 114.78125 187.5 114.78125 Z M 187.5 114.78125 " clip-rule="nonzero"/></clipPath><clipPath id="b00079c5ad"><path d="M 169.171875 0 L 205.921875 0 L 205.921875 34.5 L 169.171875 34.5 Z M 169.171875 0 " clip-rule="nonzero"/></clipPath><clipPath id="8d6efe4129"><path d="M 50.28125 196.566406 L 77.28125 196.566406 L 77.28125 224.316406 L 50.28125 224.316406 Z M 50.28125 196.566406 " clip-rule="nonzero"/></clipPath><clipPath id="aadef92075"><path d="M 297.449219 196.566406 L 324.449219 196.566406 L 324.449219 224.316406 L 297.449219 224.316406 Z M 297.449219 196.566406 " clip-rule="nonzero"/></clipPath><clipPath id="38da1e40da"><path d="M 138.566406 133.566406 L 236 133.566406 L 236 287.316406 L 138.566406 287.316406 Z M 138.566406 133.566406 " clip-rule="nonzero"/></clipPath><clipPath id="4cb64009f7"><path d="M 133.421875 17.429688 L 157.421875 17.429688 L 157.421875 40.679688 L 133.421875 40.679688 Z M 133.421875 17.429688 " clip-rule="nonzero"/></clipPath><clipPath id="172d2c0a26"><path d="M 217.515625 17.429688 L 241.515625 17.429688 L 241.515625 40.679688 L 217.515625 40.679688 Z M 217.515625 17.429688 " clip-rule="nonzero"/></clipPath></defs><g clip-path="url(#64055552e1)"><g clip-path="url(#f2df7df8c5)"><path stroke-linecap="butt" transform="matrix(0.75, 0, 0, 0.75, 22.850857, 45.701704)" fill="none" stroke-linejoin="miter" d="M 219.532205 0.0018944 C 98.287406 0.0018944 0.000940881 98.288359 0.000940881 219.533159 C 0.000940881 340.77275 98.287406 439.064423 219.532205 439.064423 C 340.777005 439.064423 439.06347 340.77275 439.06347 219.533159 C 439.06347 98.288359 340.777005 0.0018944 219.532205 0.0018944 Z M 219.532205 0.0018944 " stroke="#033860" stroke-width="8" stroke-opacity="1" stroke-miterlimit="4"/></g></g><g clip-path="url(#8a2e3fd87c)"><g clip-path="url(#b6f7058fbb)"><path fill="#033860" d="M 32.617188 55.46875 L 342.382812 55.46875 L 342.382812 365.234375 L 32.617188 365.234375 Z M 32.617188 55.46875 " fill-opacity="1" fill-rule="nonzero"/></g></g><g clip-path="url(#89e35186d0)"><g clip-path="url(#c3b40d0019)"><path fill="#ffc33d" d="M 91.933594 114.78125 L 283.066406 114.78125 L 283.066406 305.917969 L 91.933594 305.917969 Z M 91.933594 114.78125 " fill-opacity="1" fill-rule="nonzero"/></g></g><g clip-path="url(#6485073de2)"><g clip-path="url(#d9109479a7)"><path stroke-linecap="butt" transform="matrix(0.75, 0, 0, 0.75, 91.931689, 114.782541)" fill="none" stroke-linejoin="miter" d="M 127.424423 -0.00172168 C 57.049419 -0.00172168 0.00253985 57.050365 0.00253985 127.420162 C 0.00253985 197.795166 57.049419 254.842045 127.424423 254.842045 C 197.79422 254.842045 254.846307 197.795166 254.846307 127.420162 C 254.846307 57.050365 197.79422 -0.00172168 127.424423 -0.00172168 Z M 127.424423 -0.00172168 " stroke="#ffffff" stroke-width="12" stroke-opacity="1" stroke-miterlimit="4"/></g></g><g clip-path="url(#b00079c5ad)"><path fill="#ffc33d" d="M 187.5 0 L 192.21875 10.609375 C 192.398438 11.019531 192.683594 11.371094 193.046875 11.632812 C 193.40625 11.894531 193.832031 12.058594 194.273438 12.101562 L 205.824219 13.3125 L 197.191406 21.078125 C 196.859375 21.378906 196.613281 21.757812 196.472656 22.183594 C 196.335938 22.605469 196.3125 23.058594 196.40625 23.496094 L 198.824219 34.855469 L 188.769531 29.042969 C 188.382812 28.820312 187.945312 28.703125 187.5 28.703125 C 187.054688 28.703125 186.613281 28.820312 186.230469 29.042969 L 176.175781 34.855469 L 178.59375 23.496094 C 178.6875 23.058594 178.664062 22.605469 178.523438 22.183594 C 178.386719 21.757812 178.140625 21.378906 177.808594 21.078125 L 169.175781 13.3125 L 180.722656 12.101562 C 181.167969 12.058594 181.589844 11.894531 181.953125 11.632812 C 182.3125 11.371094 182.597656 11.019531 182.78125 10.609375 Z M 187.5 0 " fill-opacity="1" fill-rule="evenodd"/></g><g clip-path="url(#8d6efe4129)"><path fill="#ffffff" d="M 75.289062 202.992188 C 73.675781 200.550781 71.28125 198.65625 68.542969 197.664062 C 65.570312 196.585938 62.25 196.589844 59.277344 197.664062 C 56.542969 198.65625 54.144531 200.550781 52.53125 202.992188 C 51.058594 205.222656 50.28125 207.8125 50.28125 210.480469 C 50.28125 211.09375 50.328125 211.722656 50.414062 212.355469 C 50.722656 214.582031 51.589844 216.71875 52.925781 218.539062 C 54.839844 221.140625 57.609375 222.984375 60.730469 223.734375 C 61.777344 223.984375 62.847656 224.109375 63.910156 224.109375 C 64.972656 224.109375 66.042969 223.984375 67.089844 223.734375 C 70.210938 222.984375 72.980469 221.140625 74.894531 218.539062 C 76.230469 216.71875 77.101562 214.582031 77.40625 212.355469 C 77.496094 211.71875 77.539062 211.089844 77.539062 210.480469 C 77.539062 207.8125 76.761719 205.222656 75.289062 202.992188 Z M 67.992188 199.335938 C 68.054688 199.359375 68.117188 199.375 68.175781 199.398438 C 70.539062 200.308594 72.589844 201.996094 73.949219 204.140625 C 73.988281 204.203125 74.023438 204.265625 74.058594 204.328125 L 72.59375 207.976562 L 68.828125 208.921875 L 64.492188 205.773438 L 64.492188 201.882812 Z M 63.332031 201.882812 L 63.332031 205.773438 L 58.992188 208.925781 L 55.230469 207.976562 L 53.761719 204.328125 C 53.800781 204.265625 53.832031 204.203125 53.871094 204.140625 C 55.230469 201.996094 57.28125 200.3125 59.644531 199.398438 C 59.707031 199.375 59.765625 199.359375 59.828125 199.335938 Z M 54.945312 209.101562 L 58.773438 210.066406 L 60.335938 214.875 L 58.128906 218.171875 L 54.972656 218.296875 C 54.921875 218.238281 54.867188 218.183594 54.816406 218.125 C 53.273438 216.289062 52.328125 214.066406 52.085938 211.703125 C 52.078125 211.636719 52.082031 211.570312 52.074219 211.5 Z M 59.09375 218.820312 L 61.238281 215.613281 L 66.582031 215.613281 L 68.726562 218.820312 L 67.644531 221.765625 C 67.570312 221.789062 67.5 221.816406 67.425781 221.839844 C 65.152344 222.546875 62.664062 222.542969 60.394531 221.839844 C 60.320312 221.816406 60.25 221.789062 60.179688 221.765625 Z M 69.691406 218.171875 L 67.484375 214.875 L 69.046875 210.066406 L 72.875 209.101562 L 75.746094 211.5 C 75.742188 211.570312 75.746094 211.636719 75.738281 211.703125 C 75.496094 214.066406 74.550781 216.289062 73.003906 218.125 C 72.957031 218.183594 72.898438 218.238281 72.847656 218.296875 Z M 69.691406 218.171875 " fill-opacity="1" fill-rule="nonzero"/></g><g clip-path="url(#aadef92075)"><path fill="#ffffff" d="M 322.457031 202.992188 C 320.84375 200.550781 318.449219 198.65625 315.710938 197.664062 C 312.738281 196.585938 309.417969 196.589844 306.445312 197.664062 C 303.710938 198.65625 301.3125 200.550781 299.699219 202.992188 C 298.226562 205.222656 297.449219 207.8125 297.449219 210.480469 C 297.449219 211.09375 297.496094 211.722656 297.582031 212.355469 C 297.890625 214.582031 298.757812 216.71875 300.09375 218.539062 C 302.007812 221.140625 304.78125 222.984375 307.898438 223.734375 C 308.945312 223.984375 310.015625 224.109375 311.078125 224.109375 C 312.140625 224.109375 313.210938 223.984375 314.257812 223.734375 C 317.378906 222.984375 320.152344 221.140625 322.0625 218.539062 C 323.398438 216.71875 324.269531 214.582031 324.574219 212.355469 C 324.664062 211.71875 324.707031 211.089844 324.707031 210.480469 C 324.707031 207.8125 323.929688 205.222656 322.457031 202.992188 Z M 315.160156 199.335938 C 315.222656 199.359375 315.285156 199.375 315.34375 199.398438 C 317.707031 200.308594 319.757812 201.996094 321.117188 204.140625 C 321.15625 204.203125 321.191406 204.265625 321.226562 204.328125 L 319.761719 207.976562 L 315.996094 208.921875 L 311.660156 205.773438 L 311.660156 201.882812 Z M 310.5 201.882812 L 310.5 205.773438 L 306.160156 208.925781 L 302.398438 207.976562 L 300.929688 204.328125 C 300.96875 204.265625 301 204.203125 301.039062 204.140625 C 302.398438 201.996094 304.449219 200.3125 306.8125 199.398438 C 306.875 199.375 306.9375 199.359375 306.996094 199.335938 Z M 302.113281 209.101562 L 305.941406 210.066406 L 307.503906 214.875 L 305.296875 218.171875 L 302.140625 218.296875 C 302.089844 218.238281 302.035156 218.183594 301.984375 218.125 C 300.441406 216.289062 299.496094 214.066406 299.253906 211.703125 C 299.246094 211.636719 299.25 211.570312 299.242188 211.5 Z M 306.261719 218.820312 L 308.40625 215.613281 L 313.75 215.613281 L 315.894531 218.820312 L 314.8125 221.765625 C 314.738281 221.789062 314.667969 221.816406 314.59375 221.839844 C 312.320312 222.546875 309.832031 222.542969 307.5625 221.839844 C 307.488281 221.816406 307.417969 221.789062 307.347656 221.765625 Z M 316.859375 218.171875 L 314.652344 214.875 L 316.214844 210.066406 L 320.042969 209.101562 L 322.914062 211.5 C 322.910156 211.570312 322.914062 211.636719 322.90625 211.703125 C 322.664062 214.066406 321.71875 216.289062 320.171875 218.125 C 320.125 218.183594 320.070312 218.238281 320.019531 218.296875 Z M 316.859375 218.171875 " fill-opacity="1" fill-rule="nonzero"/></g><g clip-path="url(#38da1e40da)"><path fill="#033860" d="M 189.738281 133.566406 C 188.140625 135.679688 186.097656 137.628906 185.390625 140.265625 C 184.824219 142.449219 186.464844 144.292969 187.324219 146.152344 C 188.144531 144.804688 188.9375 143.4375 189.738281 142.078125 C 190.863281 143.328125 191.484375 144.953125 192.605469 146.226562 C 193.539062 144.160156 195.164062 141.765625 193.980469 139.476562 C 192.921875 137.292969 191.378906 135.308594 189.738281 133.566406 Z M 182.070312 143.339844 C 181.851562 143.34375 181.625 143.371094 181.398438 143.425781 C 177.769531 144.453125 177.800781 150.058594 180.898438 151.738281 C 182.605469 152.605469 184.8125 153.371094 185.078125 155.585938 C 186.921875 153.585938 187.136719 149.398438 184.203125 148.34375 C 184.019531 149.082031 183.726562 149.984375 182.773438 149.824219 C 181.109375 149.734375 181.324219 147.109375 182.785156 146.839844 C 183.902344 146.414062 184.90625 147.136719 185.851562 147.625 C 185.824219 145.609375 184.1875 143.316406 182.070312 143.339844 Z M 197.5625 143.363281 C 197.359375 143.363281 197.152344 143.378906 196.9375 143.417969 C 194.953125 143.800781 193.96875 145.867188 193.636719 147.671875 C 194.71875 147.019531 196.066406 146.199219 197.3125 146.972656 C 198.519531 147.480469 198.453125 149.59375 197.054688 149.75 C 196.0625 149.957031 195.707031 148.886719 195.386719 148.1875 C 192.644531 149.429688 192.929688 153.257812 194.601562 155.300781 C 195.230469 152.140625 199.359375 152.648438 200.644531 149.996094 C 202.253906 147.539062 200.59375 143.367188 197.5625 143.363281 Z M 164.535156 144.753906 C 164.179688 147.617188 164.433594 151.105469 167.15625 152.773438 C 167.230469 152.082031 167.183594 151.355469 167.457031 150.695312 C 168.671875 150.585938 169.265625 151.996094 170.207031 152.5625 C 170.152344 151.25 170.398438 149.890625 170.089844 148.613281 C 168.882812 146.640625 166.597656 145.59375 164.535156 144.753906 Z M 215.203125 144.78125 C 215.128906 144.796875 214.972656 144.828125 214.894531 144.84375 C 213.195312 145.371094 211.589844 146.328125 210.359375 147.625 C 208.984375 148.875 209.8125 150.894531 209.539062 152.515625 C 210.390625 151.8125 211.105469 150.871094 212.167969 150.476562 C 212.632812 151.070312 212.875 151.792969 213.238281 152.441406 C 215.425781 150.558594 215.558594 147.449219 215.203125 144.78125 Z M 189.738281 145.773438 C 189.066406 146.867188 188.226562 147.824219 187.300781 148.707031 C 188.609375 151.699219 187.253906 155.28125 184.671875 157.125 C 182.136719 159.191406 178.695312 159.652344 175.53125 159.363281 C 174.492188 159.1875 173.324219 158.910156 172.640625 158.042969 C 174.160156 158.226562 175.933594 158.527344 177.191406 157.421875 C 179.570312 155.273438 178.441406 150.707031 175.332031 149.921875 C 173.890625 149.417969 171.972656 150 171.496094 151.5625 C 171.003906 152.804688 171.835938 154.417969 173.257812 154.375 C 173.226562 153.625 173.589844 152.636719 174.535156 152.929688 C 175.886719 153.160156 175.871094 155.320312 174.523438 155.5625 C 172.015625 156 170.242188 153.722656 168.230469 152.730469 C 167.710938 153.144531 167.9375 154.132812 167.804688 154.78125 C 166.863281 154.035156 165.710938 152.882812 164.410156 153.386719 C 164.53125 154.140625 164.875 154.871094 164.78125 155.648438 C 162.835938 155.605469 162.273438 151.917969 164.480469 151.644531 C 162.871094 149.195312 159.277344 149.160156 156.738281 149.90625 C 161.101562 153.226562 164.140625 158.203125 165.457031 163.507812 C 181.605469 159.578125 198.542969 160.09375 214.75 163.316406 C 216.054688 158.085938 219.003906 153.238281 223.246094 149.886719 C 220.617188 149.136719 216.839844 149.152344 215.320312 151.835938 C 217.542969 151.855469 217.027344 155.164062 215.472656 155.769531 C 214.398438 155.421875 215.25 154.226562 215.480469 153.554688 C 214.234375 153.019531 213.027344 154 212.171875 154.816406 C 212.164062 154.066406 212.230469 153.292969 211.980469 152.570312 C 209.746094 153.503906 207.984375 156.042969 205.285156 155.566406 C 203.886719 155.28125 203.941406 152.96875 205.460938 152.960938 C 206.683594 152.574219 206.265625 154.851562 207.355469 154.25 C 208.882812 153.570312 208.582031 151.265625 207.429688 150.363281 C 205.839844 149.148438 203.363281 149.832031 202.292969 151.429688 C 200.921875 153.226562 201.09375 156.121094 202.875 157.582031 C 204.292969 158.683594 206.171875 158.148438 207.773438 157.851562 C 205.390625 160.171875 201.601562 159.492188 198.628906 158.941406 C 194.316406 158.101562 190.585938 153.179688 192.542969 148.851562 C 191.667969 147.785156 190.636719 146.828125 189.734375 145.773438 Z M 190.34375 163.148438 C 187.695312 163.152344 185.054688 163.210938 182.429688 163.285156 C 176.980469 163.617188 171.550781 164.371094 166.257812 165.714844 C 166.789062 167.675781 166.914062 169.855469 167.996094 171.585938 C 168.058594 172.363281 167.925781 173.246094 168.605469 173.800781 C 162.273438 178.730469 156.632812 184.570312 149.734375 188.757812 C 152.816406 189.371094 155.957031 189.316406 159.082031 189.335938 C 152.179688 196.542969 147.320312 205.59375 139.570312 212 C 143.613281 212.25 147.613281 211.570312 151.464844 210.394531 C 146.53125 218.679688 143.179688 227.777344 138.59375 236.25 C 143.898438 234.433594 148.738281 231.234375 152.640625 227.214844 C 152.179688 234.175781 153.222656 241.347656 156.761719 247.449219 C 157.703125 242.304688 159.472656 237.234375 162.472656 232.921875 C 162.164062 242.59375 166.015625 251.941406 171.402344 259.804688 C 174.097656 263.394531 176.886719 267.027344 180.515625 269.722656 C 178.921875 263.328125 177.535156 256.695312 178.246094 250.078125 C 185.445312 266.957031 199.773438 280.515625 216.867188 287.121094 C 212.308594 279.9375 208.84375 271.980469 207.109375 263.644531 C 208.730469 264.386719 210.34375 265.164062 212.023438 265.78125 C 210.691406 261.277344 209.558594 256.683594 209.160156 251.984375 C 214.679688 257.429688 221.941406 261.128906 229.652344 262.097656 C 224.476562 257.171875 220.546875 251.011719 217.984375 244.359375 C 223.207031 247.886719 229.152344 250.554688 235.5 251.082031 C 228.796875 243.996094 223.882812 235.109375 221.566406 225.636719 C 224.746094 226.078125 228.117188 226.007812 231.117188 224.757812 C 224.984375 223.042969 219.652344 218.550781 217.160156 212.660156 C 218.878906 213.152344 220.667969 213.367188 222.457031 213.246094 C 218.796875 211.101562 215.800781 207.089844 216.289062 202.671875 C 216.941406 198.226562 221.535156 194.726562 225.960938 195.226562 C 228.40625 196.246094 228.6875 199.515625 228.632812 201.839844 C 234.546875 197.09375 236.402344 188.164062 233.039062 181.390625 C 230.972656 176.609375 225.855469 173.195312 220.585938 173.683594 C 219.230469 173.90625 217.867188 173.984375 216.496094 173.996094 C 214.730469 174.410156 213.796875 172.511719 212.683594 171.503906 C 213.335938 169.671875 213.621094 167.59375 213.875 165.742188 C 206.238281 163.628906 198.277344 163.136719 190.339844 163.148438 Z M 190.660156 165.984375 C 196.648438 166.019531 202.632812 166.648438 208.480469 167.960938 C 208.453125 168.582031 208.675781 170.117188 207.671875 169.734375 C 201.226562 168.421875 194.625 168.265625 188.066406 168.339844 C 182.707031 168.179688 177.386719 168.957031 172.121094 169.867188 C 171.960938 169.230469 171.902344 168.574219 171.929688 167.917969 C 176.085938 166.820312 180.394531 166.429688 184.675781 166.144531 C 186.667969 166.027344 188.664062 165.972656 190.660156 165.984375 Z M 193.683594 172.347656 C 196.007812 172.328125 198.320312 172.429688 200.609375 172.917969 C 203.429688 173.355469 206.082031 174.5 208.902344 174.90625 C 207.488281 176.261719 206.035156 177.601562 204.902344 179.207031 C 203.210938 179.710938 201.585938 178.777344 199.941406 178.53125 C 200.273438 179.121094 200.6875 179.667969 200.9375 180.304688 C 198.707031 180.34375 196.570312 179.546875 194.410156 179.105469 C 190.863281 178.242188 187.492188 176.136719 183.75 176.449219 C 184.542969 177.175781 185.742188 177.304688 186.542969 177.917969 C 182.578125 179.164062 178.351562 181.941406 175.21875 185.058594 C 178.144531 183.929688 181.285156 183.199219 184.4375 183.441406 C 183.230469 184.253906 181.792969 184.652344 180.605469 185.507812 C 183.507812 185.917969 186.308594 186.863281 189.101562 187.746094 C 188.3125 188.199219 187.332031 188.292969 186.636719 188.898438 C 189.976562 189.820312 193.605469 190.058594 196.917969 188.902344 C 192.507812 192.832031 188.101562 196.839844 184.574219 201.625 C 185.1875 198.84375 186.714844 196.363281 188.28125 194.023438 C 187.027344 194.246094 185.898438 194.863281 184.808594 195.492188 C 173.847656 201.738281 164.554688 211.019531 158.878906 222.335938 C 160.0625 210.753906 165.636719 199.152344 175.414062 192.460938 C 167.601562 193.878906 161.511719 199.753906 156.949219 205.914062 C 158.492188 200.726562 161.644531 196.117188 165.769531 192.632812 C 162.277344 193.722656 159.371094 196.117188 156.53125 198.347656 C 159.335938 192.898438 164.042969 188.679688 169.042969 185.277344 C 166.152344 184.992188 163.273438 185.476562 160.425781 185.910156 C 164.390625 182.460938 169.167969 180 174.125 178.351562 C 172.800781 177.96875 171.410156 177.917969 170.0625 177.660156 C 174.988281 174.480469 180.941406 173.128906 186.71875 172.476562 C 189.035156 172.496094 191.363281 172.363281 193.683594 172.34375 Z M 219.21875 176.960938 C 222.953125 177.074219 226.707031 178.296875 228.667969 181.675781 C 230.78125 185.402344 231.515625 190.160156 229.605469 194.101562 C 227.988281 190.089844 223.417969 188.378906 219.371094 188.375 C 211.613281 188.351562 203.941406 190.621094 197.050781 194.09375 C 198.304688 192.613281 199.871094 191.417969 201.042969 189.855469 C 203.898438 186.546875 205.421875 182.265625 208.582031 179.199219 C 210.1875 177.050781 213.210938 177.558594 215.558594 177.175781 C 216.730469 177.007812 217.972656 176.921875 219.21875 176.960938 Z M 212.382812 179.699219 C 212.300781 179.695312 212.148438 179.742188 211.894531 179.851562 C 210.578125 180.417969 209.492188 181.652344 209.179688 183.058594 C 209.15625 184.5 209.996094 185.816406 210.902344 186.882812 C 210.976562 184.289062 212.992188 182.332031 215.027344 181 C 213.980469 180.640625 212.867188 180.589844 211.777344 180.695312 C 212.066406 180.324219 212.679688 179.707031 212.382812 179.699219 Z M 190.765625 180.75 C 193.261719 180.605469 192.898438 183.953125 195.230469 184.070312 C 196.492188 184.398438 197.199219 183.121094 198.273438 182.835938 C 198.355469 185.078125 195.957031 186.554688 193.910156 186.1875 C 191.449219 185.9375 189.6875 183.003906 190.765625 180.75 Z M 211.59375 194.90625 C 208.5 196.15625 205.246094 197.722656 203.339844 200.582031 C 204.972656 200.058594 206.589844 199.472656 208.285156 199.167969 C 204.640625 201.84375 201.609375 205.257812 199.117188 209.015625 C 199.578125 206.203125 201.042969 203.726562 202.1875 201.183594 C 197.40625 202.09375 193.789062 205.875 190.945312 209.597656 C 191.652344 205.542969 193.484375 201.625 196.480469 198.761719 C 194.941406 198.832031 193.402344 199.015625 191.863281 198.996094 C 196.664062 196.101562 202.546875 195.703125 208.003906 194.996094 C 209.199219 194.921875 210.398438 194.914062 211.59375 194.910156 Z M 180.890625 201.234375 C 178.410156 206.53125 176.921875 212.378906 177.003906 218.238281 C 179.597656 213.792969 182.632812 209.488281 186.492188 206.0625 C 184.265625 210.144531 182.140625 214.351562 180.996094 218.890625 C 178.949219 226.988281 178.050781 235.582031 179.875 243.804688 C 175.617188 237.96875 173.84375 230.601562 173.316406 223.484375 C 170.511719 229.125 168.75 235.394531 168.78125 241.75 C 165.8125 227.453125 169.917969 211.414062 180.78125 201.335938 Z M 189.457031 213.472656 C 188.507812 217.433594 189.03125 221.515625 190.203125 225.347656 C 191.277344 221.816406 192.628906 218.296875 194.792969 215.277344 C 194.222656 217.792969 194.113281 220.386719 194.476562 222.9375 C 195.542969 220.734375 196.757812 218.59375 198.105469 216.550781 C 195.160156 228.816406 196 242.347656 202.363281 253.4375 C 195.019531 247.375 190.835938 238.117188 189.4375 228.832031 C 187.933594 232.082031 188.1875 235.8125 188.042969 239.3125 C 185.480469 230.992188 185.769531 221.585938 189.382812 213.613281 Z M 210.796875 215.523438 C 211.542969 218.503906 213.320312 221.050781 214.929688 223.617188 C 215.558594 224.703125 214.808594 221.894531 215.347656 223.0625 C 216.957031 227.253906 219.003906 231.3125 221.851562 234.8125 C 214.867188 231.230469 211.054688 223.148438 210.796875 215.523438 Z M 201.800781 221.667969 C 202.882812 224.566406 203.90625 227.679688 206.238281 229.851562 C 206.121094 227.226562 206.496094 224.605469 207.023438 222.042969 C 207.554688 229.171875 209.851562 236.136719 213.457031 242.292969 C 206.425781 238.03125 202.183594 229.773438 201.800781 221.667969 Z M 201.800781 221.667969 " fill-opacity="1" fill-rule="nonzero"/></g><g clip-path="url(#4cb64009f7)"><path fill="#ffc33d" d="M 145.453125 17.429688 L 148.550781 24.394531 C 148.667969 24.660156 148.855469 24.890625 149.09375 25.0625 C 149.328125 25.234375 149.605469 25.34375 149.898438 25.375 L 157.480469 26.167969 L 151.8125 31.265625 C 151.59375 31.460938 151.433594 31.710938 151.34375 31.988281 C 151.25 32.265625 151.238281 32.566406 151.296875 32.851562 L 152.882812 40.304688 L 146.285156 36.492188 C 146.03125 36.347656 145.746094 36.269531 145.453125 36.269531 C 145.160156 36.269531 144.871094 36.347656 144.617188 36.492188 L 138.019531 40.304688 L 139.605469 32.851562 C 139.667969 32.566406 139.652344 32.265625 139.5625 31.988281 C 139.46875 31.710938 139.308594 31.460938 139.089844 31.265625 L 133.425781 26.167969 L 141.003906 25.375 C 141.296875 25.34375 141.574219 25.234375 141.8125 25.0625 C 142.046875 24.890625 142.234375 24.660156 142.355469 24.394531 Z M 145.453125 17.429688 " fill-opacity="1" fill-rule="evenodd"/></g><g clip-path="url(#172d2c0a26)"><path fill="#ffc33d" d="M 229.542969 17.429688 L 232.640625 24.394531 C 232.761719 24.660156 232.949219 24.890625 233.183594 25.0625 C 233.421875 25.234375 233.699219 25.34375 233.988281 25.375 L 241.570312 26.167969 L 235.90625 31.265625 C 235.6875 31.460938 235.523438 31.710938 235.433594 31.988281 C 235.34375 32.265625 235.328125 32.566406 235.390625 32.851562 L 236.976562 40.304688 L 230.378906 36.492188 C 230.125 36.347656 229.835938 36.269531 229.542969 36.269531 C 229.25 36.269531 228.964844 36.347656 228.710938 36.492188 L 222.109375 40.304688 L 223.699219 32.851562 C 223.757812 32.566406 223.742188 32.265625 223.652344 31.988281 C 223.5625 31.710938 223.398438 31.460938 223.183594 31.265625 L 217.515625 26.167969 L 225.097656 25.375 C 225.386719 25.34375 225.667969 25.234375 225.902344 25.0625 C 226.140625 24.890625 226.328125 24.660156 226.445312 24.394531 Z M 229.542969 17.429688 " fill-opacity="1" fill-rule="evenodd"/></g><g fill="#ffffff" fill-opacity="1"><g transform="translate(94.46443, 148.283803)"><g><path d="M 13.078125 -15.125 L 10.46875 -15.796875 C 10.738281 -15.015625 10.722656 -14.019531 10.421875 -12.8125 C 10.117188 -11.613281 9.488281 -10.453125 8.53125 -9.328125 C 7.070312 -7.640625 5.328125 -6.460938 3.296875 -5.796875 C 1.265625 -5.140625 -0.863281 -5.0625 -3.09375 -5.5625 C -5.320312 -6.070312 -7.484375 -7.234375 -9.578125 -9.046875 C -11.171875 -10.421875 -12.40625 -11.914062 -13.28125 -13.53125 C -14.15625 -15.15625 -14.695312 -16.800781 -14.90625 -18.46875 C -15.125 -20.144531 -15.03125 -21.734375 -14.625 -23.234375 C -14.21875 -24.742188 -13.53125 -26.0625 -12.5625 -27.1875 C -11.65625 -28.226562 -10.800781 -29.003906 -10 -29.515625 C -9.207031 -30.035156 -8.488281 -30.367188 -7.84375 -30.515625 C -7.195312 -30.671875 -6.648438 -30.742188 -6.203125 -30.734375 C -5.765625 -30.722656 -5.4375 -30.726562 -5.21875 -30.75 L -6.796875 -33.15625 L -3.046875 -37.484375 L 5.53125 -30.078125 L 1.03125 -24.890625 C -0.1875 -25.867188 -1.394531 -26.304688 -2.59375 -26.203125 C -3.800781 -26.097656 -4.773438 -25.617188 -5.515625 -24.765625 C -6.191406 -23.984375 -6.535156 -23.070312 -6.546875 -22.03125 C -6.554688 -21 -6.289062 -19.953125 -5.75 -18.890625 C -5.21875 -17.835938 -4.46875 -16.894531 -3.5 -16.0625 C -2.507812 -15.207031 -1.476562 -14.585938 -0.40625 -14.203125 C 0.65625 -13.828125 1.6875 -13.726562 2.6875 -13.90625 C 3.6875 -14.09375 4.546875 -14.601562 5.265625 -15.4375 C 5.984375 -16.269531 6.375 -17.007812 6.4375 -17.65625 C 6.5 -18.3125 6.441406 -18.90625 6.265625 -19.4375 L 5.046875 -20.5 L 3.515625 -18.734375 L 0.40625 -21.421875 L 8.75 -31.0625 L 11.859375 -28.375 L 10.859375 -27.203125 L 18.109375 -20.921875 Z M 13.078125 -15.125 "/></g></g></g><g fill="#ffffff" fill-opacity="1"><g transform="translate(118.9581, 121.955921)"><g><path d="M -13.296875 -23.3125 L 6.375 -35.484375 L 10.828125 -28.265625 L 5.1875 -24.78125 L 3.390625 -27.703125 L -1.8125 -24.46875 L 0.984375 -19.953125 L 7.171875 -23.796875 L 9.859375 -19.453125 L 3.671875 -15.609375 L 6.953125 -10.296875 L 12.15625 -13.53125 L 10.28125 -16.5625 L 15.921875 -20.046875 L 20.484375 -12.671875 L 0.8125 -0.5 L -1.875 -4.84375 L 0.1875 -6.125 L -8.578125 -20.296875 L -10.640625 -19.015625 Z M -13.296875 -23.3125 "/></g></g></g><g fill="#ffffff" fill-opacity="1"><g transform="translate(146.044644, 106.107265)"><g><path d="M 0.921875 -0.25 L -1.578125 -9.59375 L 5.3125 -11.4375 C 5.519531 -10.675781 5.859375 -10.097656 6.328125 -9.703125 C 6.796875 -9.304688 7.316406 -9.046875 7.890625 -8.921875 C 8.460938 -8.796875 9.019531 -8.75 9.5625 -8.78125 C 10.101562 -8.820312 10.582031 -8.882812 11 -8.96875 C 11.4375 -9.082031 11.882812 -9.25 12.34375 -9.46875 C 12.800781 -9.695312 13.164062 -9.988281 13.4375 -10.34375 C 13.707031 -10.707031 13.773438 -11.144531 13.640625 -11.65625 C 13.523438 -12.082031 13.171875 -12.363281 12.578125 -12.5 C 11.984375 -12.632812 11.234375 -12.710938 10.328125 -12.734375 C 9.429688 -12.753906 8.4375 -12.769531 7.34375 -12.78125 C 6.257812 -12.800781 5.15625 -12.882812 4.03125 -13.03125 C 2.90625 -13.1875 1.832031 -13.476562 0.8125 -13.90625 C -0.207031 -14.332031 -1.097656 -14.945312 -1.859375 -15.75 C -2.628906 -16.550781 -3.195312 -17.628906 -3.5625 -18.984375 C -3.925781 -20.367188 -3.957031 -21.632812 -3.65625 -22.78125 C -3.363281 -23.9375 -2.847656 -24.957031 -2.109375 -25.84375 C -1.378906 -26.738281 -0.550781 -27.476562 0.375 -28.0625 C 1.300781 -28.644531 2.222656 -29.0625 3.140625 -29.3125 C 4.703125 -29.726562 6.269531 -29.84375 7.84375 -29.65625 C 9.425781 -29.46875 10.78125 -28.78125 11.90625 -27.59375 L 11.4375 -30.828125 L 17.8125 -32.515625 L 20.296875 -23.203125 L 13.59375 -21.421875 C 13.226562 -22.804688 12.476562 -23.742188 11.34375 -24.234375 C 10.21875 -24.722656 9 -24.796875 7.6875 -24.453125 C 7.144531 -24.304688 6.628906 -23.988281 6.140625 -23.5 C 5.648438 -23.007812 5.488281 -22.445312 5.65625 -21.8125 C 5.800781 -21.257812 6.1875 -20.863281 6.8125 -20.625 C 7.445312 -20.382812 8.242188 -20.21875 9.203125 -20.125 C 10.171875 -20.039062 11.21875 -19.96875 12.34375 -19.90625 C 13.476562 -19.851562 14.625 -19.742188 15.78125 -19.578125 C 16.9375 -19.410156 18.035156 -19.132812 19.078125 -18.75 C 20.128906 -18.375 21.035156 -17.8125 21.796875 -17.0625 C 22.554688 -16.3125 23.101562 -15.320312 23.4375 -14.09375 C 23.820312 -12.644531 23.851562 -11.332031 23.53125 -10.15625 C 23.207031 -8.988281 22.640625 -7.972656 21.828125 -7.109375 C 21.015625 -6.242188 20.070312 -5.515625 19 -4.921875 C 17.925781 -4.335938 16.835938 -3.894531 15.734375 -3.59375 C 13.847656 -3.09375 12.164062 -3.03125 10.6875 -3.40625 C 9.207031 -3.78125 7.992188 -4.296875 7.046875 -4.953125 L 7.40625 -1.984375 Z M 0.921875 -0.25 "/></g></g></g><g fill="#ffffff" fill-opacity="1"><g transform="translate(178.76577, 98.598401)"><g><path d="M 1.640625 -26.78125 L 13.765625 -26.484375 L 13.625 -21.4375 L 11.59375 -21.484375 L 11.171875 -4.828125 L 16.125 -4.703125 L 16.25 -9.578125 L 22.703125 -9.421875 L 22.453125 0.5625 L 0.953125 0.03125 L 1.078125 -5.078125 L 3.1875 -5.03125 L 3.609375 -21.6875 L 1.5 -21.734375 Z M 1.640625 -26.78125 "/></g></g></g><g fill="#ffffff" fill-opacity="1"><g transform="translate(208.841046, 100.661932)"><g><path d="M 7.796875 -25.6875 L 20.125 -22.421875 L 18.828125 -17.53125 L 16.53125 -18.140625 L 12.265625 -2.03125 L 14.5625 -1.421875 L 13.25 3.515625 L 0.921875 0.25 L 2.234375 -4.6875 L 4.578125 -4.078125 L 8.84375 -20.1875 L 6.5 -20.796875 Z M 7.796875 -25.6875 "/></g></g></g><g fill="#ffffff" fill-opacity="1"><g transform="translate(229.496695, 106.014203)"><g><path d="M 17.359375 9.921875 L 17.515625 7.21875 C 16.816406 7.644531 15.84375 7.820312 14.59375 7.75 C 13.34375 7.6875 12.078125 7.289062 10.796875 6.5625 C 8.859375 5.457031 7.367188 3.972656 6.328125 2.109375 C 5.285156 0.253906 4.796875 -1.816406 4.859375 -4.109375 C 4.929688 -6.398438 5.65625 -8.742188 7.03125 -11.140625 C 8.070312 -12.960938 9.300781 -14.460938 10.71875 -15.640625 C 12.144531 -16.816406 13.65625 -17.664062 15.25 -18.1875 C 16.851562 -18.71875 18.429688 -18.925781 19.984375 -18.8125 C 21.546875 -18.707031 22.972656 -18.289062 24.265625 -17.5625 C 25.453125 -16.875 26.375 -16.1875 27.03125 -15.5 C 27.695312 -14.820312 28.164062 -14.179688 28.4375 -13.578125 C 28.71875 -12.972656 28.894531 -12.453125 28.96875 -12.015625 C 29.050781 -11.578125 29.117188 -11.253906 29.171875 -11.046875 L 31.234375 -13.0625 L 36.203125 -10.21875 L 30.578125 -0.375 L 24.625 -3.78125 C 25.351562 -5.15625 25.546875 -6.425781 25.203125 -7.59375 C 24.867188 -8.757812 24.210938 -9.625 23.234375 -10.1875 C 22.335938 -10.695312 21.378906 -10.859375 20.359375 -10.671875 C 19.347656 -10.484375 18.375 -10.023438 17.4375 -9.296875 C 16.507812 -8.566406 15.726562 -7.644531 15.09375 -6.53125 C 14.445312 -5.40625 14.035156 -4.273438 13.859375 -3.140625 C 13.691406 -2.015625 13.789062 -0.976562 14.15625 -0.03125 C 14.53125 0.914062 15.195312 1.660156 16.15625 2.203125 C 17.113281 2.742188 17.914062 2.976562 18.5625 2.90625 C 19.21875 2.84375 19.789062 2.671875 20.28125 2.390625 L 21.078125 1 L 19.0625 -0.15625 L 21.09375 -3.71875 L 32.15625 2.59375 L 30.125 6.15625 L 28.796875 5.40625 L 24.03125 13.734375 Z M 17.359375 9.921875 "/></g></g></g><g fill="#ffffff" fill-opacity="1"><g transform="translate(260.168551, 124.530305)"><g><path d="M 20.453125 23.296875 L 10.3125 11.734375 L 14.09375 8.421875 L 16.5 11.15625 L 17.90625 8.8125 L 12.71875 2.90625 L 10.234375 4.03125 L 12.21875 6.296875 L 8.4375 9.609375 L 0.375 0.4375 L 4.15625 -2.875 L 5.890625 -0.921875 L 21.953125 -8.15625 L 20.921875 -9.328125 L 24.640625 -12.59375 L 34.359375 -1.53125 L 22.46875 17.96875 L 24.234375 19.984375 Z M 17.109375 0.953125 L 20.421875 4.71875 L 24.984375 -2.65625 Z M 17.109375 0.953125 "/></g></g></g><g fill="#ffffff" fill-opacity="1"><g transform="translate(63.966935, 255.642287)"><g><path d="M 18.484375 1.21875 L 6.109375 13.6875 C 5.984375 13.789062 5.863281 13.832031 5.75 13.8125 C 5.644531 13.800781 5.5625 13.71875 5.5 13.5625 L 4.984375 12.28125 C 4.941406 12.175781 4.925781 12.070312 4.9375 11.96875 C 4.945312 11.863281 5.003906 11.769531 5.109375 11.6875 L 7.390625 9.4375 L 4.5 2.28125 L 1.28125 2.28125 C 1.039062 2.269531 0.875 2.148438 0.78125 1.921875 L 0.265625 0.65625 C 0.203125 0.5 0.203125 0.375 0.265625 0.28125 C 0.328125 0.1875 0.445312 0.144531 0.625 0.15625 L 18.1875 0.46875 C 18.4375 0.457031 18.59375 0.535156 18.65625 0.703125 C 18.726562 0.867188 18.671875 1.039062 18.484375 1.21875 Z M 14.703125 2.3125 L 6.515625 2.296875 L 8.84375 8.03125 Z M 14.703125 2.3125 "/></g></g></g><g fill="#ffffff" fill-opacity="1"><g transform="translate(73.585418, 277.313338)"><g><path d="M 3.109375 4.859375 L 1.125 1.765625 C 0.96875 1.515625 1.015625 1.3125 1.265625 1.15625 L 14.5625 -7.328125 C 14.8125 -7.492188 15.015625 -7.453125 15.171875 -7.203125 L 17.15625 -4.109375 C 17.863281 -2.984375 18.347656 -1.867188 18.609375 -0.765625 C 18.878906 0.335938 18.914062 1.394531 18.71875 2.40625 C 18.53125 3.425781 18.109375 4.378906 17.453125 5.265625 C 16.804688 6.160156 15.925781 6.960938 14.8125 7.671875 C 13.71875 8.367188 12.628906 8.828125 11.546875 9.046875 C 10.460938 9.265625 9.410156 9.253906 8.390625 9.015625 C 7.378906 8.773438 6.425781 8.304688 5.53125 7.609375 C 4.632812 6.910156 3.828125 5.992188 3.109375 4.859375 Z M 14.40625 -4.703125 L 3.703125 2.125 L 4.75 3.765625 C 5.488281 4.921875 6.328125 5.773438 7.265625 6.328125 C 8.210938 6.890625 9.226562 7.132812 10.3125 7.0625 C 11.40625 7 12.53125 6.601562 13.6875 5.875 C 14.832031 5.132812 15.65625 4.285156 16.15625 3.328125 C 16.664062 2.378906 16.859375 1.363281 16.734375 0.28125 C 16.617188 -0.789062 16.191406 -1.90625 15.453125 -3.0625 Z M 14.40625 -4.703125 "/></g></g></g><g fill="#ffffff" fill-opacity="1"><g transform="translate(87.020899, 297.121357)"><g><path d="M 2.3125 2.40625 L 1.46875 1.515625 C 1.257812 1.304688 1.257812 1.101562 1.46875 0.90625 L 12.9375 -10.109375 C 13.132812 -10.304688 13.316406 -10.40625 13.484375 -10.40625 C 13.648438 -10.414062 13.773438 -10.347656 13.859375 -10.203125 C 13.953125 -10.066406 13.972656 -9.851562 13.921875 -9.5625 L 11.921875 1.671875 L 23.234375 0.140625 C 23.523438 0.0859375 23.738281 0.109375 23.875 0.203125 C 24.019531 0.304688 24.082031 0.441406 24.0625 0.609375 C 24.050781 0.773438 23.945312 0.957031 23.75 1.15625 L 12.28125 12.171875 C 12.070312 12.367188 11.867188 12.359375 11.671875 12.140625 L 10.828125 11.265625 C 10.617188 11.046875 10.617188 10.835938 10.828125 10.640625 L 19.015625 2.765625 L 10 3.96875 C 9.820312 4 9.691406 3.972656 9.609375 3.890625 C 9.535156 3.804688 9.519531 3.6875 9.5625 3.53125 L 11.125 -5.4375 L 2.9375 2.4375 C 2.726562 2.632812 2.519531 2.625 2.3125 2.40625 Z M 2.3125 2.40625 "/></g></g></g><g fill="#ffffff" fill-opacity="1"><g transform="translate(106.602041, 315.826376)"><g><path d="M 2.65625 2.015625 L 1.671875 1.265625 C 1.429688 1.085938 1.398438 0.882812 1.578125 0.65625 L 11.109375 -11.921875 C 11.296875 -12.160156 11.507812 -12.191406 11.75 -12.015625 L 12.734375 -11.265625 C 12.972656 -11.085938 13 -10.878906 12.8125 -10.640625 L 3.28125 1.9375 C 3.101562 2.164062 2.894531 2.191406 2.65625 2.015625 Z M 2.65625 2.015625 "/></g></g></g><g fill="#ffffff" fill-opacity="1"><g transform="translate(117.480259, 323.830289)"><g><path d="M 2.921875 1.609375 L 1.84375 1.015625 C 1.59375 0.878906 1.539062 0.679688 1.6875 0.421875 L 9.328125 -13.4375 C 9.460938 -13.6875 9.609375 -13.84375 9.765625 -13.90625 C 9.921875 -13.96875 10.0625 -13.945312 10.1875 -13.84375 C 10.320312 -13.738281 10.414062 -13.550781 10.46875 -13.28125 L 13.0625 1.953125 L 18.671875 -8.234375 C 18.816406 -8.492188 19.019531 -8.550781 19.28125 -8.40625 L 20.328125 -7.8125 C 20.597656 -7.664062 20.660156 -7.460938 20.515625 -7.203125 L 12.875 6.671875 C 12.75 6.898438 12.597656 7.039062 12.421875 7.09375 C 12.253906 7.15625 12.101562 7.132812 11.96875 7.03125 C 11.84375 6.925781 11.757812 6.734375 11.71875 6.453125 L 9.171875 -8.828125 L 3.515625 1.421875 C 3.367188 1.679688 3.171875 1.742188 2.921875 1.609375 Z M 2.921875 1.609375 "/></g></g></g><g fill="#ffffff" fill-opacity="1"><g transform="translate(139.141077, 334.662258)"><g><path d="M 3.109375 1.171875 L 1.953125 0.734375 C 1.679688 0.628906 1.597656 0.441406 1.703125 0.171875 L 7.25 -14.609375 C 7.351562 -14.890625 7.539062 -14.976562 7.8125 -14.875 L 8.96875 -14.4375 C 9.257812 -14.332031 9.351562 -14.140625 9.25 -13.859375 L 3.703125 0.921875 C 3.597656 1.191406 3.398438 1.273438 3.109375 1.171875 Z M 3.109375 1.171875 "/></g></g></g><g fill="#ffffff" fill-opacity="1"><g transform="translate(151.753534, 339.080814)"><g><path d="M 6.0625 1.765625 C 5.5625 1.648438 5.0625 1.5 4.5625 1.3125 C 4.0625 1.125 3.546875 0.875 3.015625 0.5625 C 2.484375 0.25 1.914062 -0.140625 1.3125 -0.609375 C 1.082031 -0.804688 1.0625 -1.019531 1.25 -1.25 L 1.96875 -2.1875 C 2.144531 -2.414062 2.359375 -2.421875 2.609375 -2.203125 C 3.335938 -1.554688 4.015625 -1.078125 4.640625 -0.765625 C 5.265625 -0.460938 5.84375 -0.25 6.375 -0.125 C 7.289062 0.09375 8.066406 0.0703125 8.703125 -0.1875 C 9.335938 -0.457031 9.738281 -0.953125 9.90625 -1.671875 C 10 -2.085938 9.984375 -2.488281 9.859375 -2.875 C 9.734375 -3.257812 9.523438 -3.628906 9.234375 -3.984375 C 8.953125 -4.347656 8.613281 -4.71875 8.21875 -5.09375 C 7.820312 -5.476562 7.394531 -5.867188 6.9375 -6.265625 C 6.5 -6.679688 6.078125 -7.097656 5.671875 -7.515625 C 5.265625 -7.941406 4.910156 -8.394531 4.609375 -8.875 C 4.316406 -9.351562 4.113281 -9.863281 4 -10.40625 C 3.882812 -10.957031 3.90625 -11.5625 4.0625 -12.21875 C 4.226562 -12.9375 4.5 -13.519531 4.875 -13.96875 C 5.25 -14.425781 5.691406 -14.765625 6.203125 -14.984375 C 6.722656 -15.210938 7.285156 -15.335938 7.890625 -15.359375 C 8.492188 -15.390625 9.117188 -15.332031 9.765625 -15.1875 C 10.410156 -15.03125 11.078125 -14.785156 11.765625 -14.453125 C 12.453125 -14.117188 13.117188 -13.71875 13.765625 -13.25 C 14.003906 -13.050781 14.023438 -12.835938 13.828125 -12.609375 L 13.1875 -11.6875 C 13.082031 -11.582031 12.976562 -11.519531 12.875 -11.5 C 12.78125 -11.476562 12.671875 -11.519531 12.546875 -11.625 C 12.023438 -12.019531 11.484375 -12.363281 10.921875 -12.65625 C 10.367188 -12.945312 9.828125 -13.15625 9.296875 -13.28125 C 8.828125 -13.394531 8.375 -13.425781 7.9375 -13.375 C 7.5 -13.332031 7.125 -13.191406 6.8125 -12.953125 C 6.5 -12.722656 6.285156 -12.363281 6.171875 -11.875 C 6.078125 -11.457031 6.082031 -11.054688 6.1875 -10.671875 C 6.289062 -10.296875 6.46875 -9.929688 6.71875 -9.578125 C 6.96875 -9.222656 7.265625 -8.878906 7.609375 -8.546875 C 7.960938 -8.210938 8.34375 -7.867188 8.75 -7.515625 C 9.101562 -7.191406 9.460938 -6.851562 9.828125 -6.5 C 10.203125 -6.144531 10.546875 -5.78125 10.859375 -5.40625 C 11.179688 -5.03125 11.453125 -4.628906 11.671875 -4.203125 C 11.890625 -3.773438 12.035156 -3.320312 12.109375 -2.84375 C 12.179688 -2.375 12.15625 -1.863281 12.03125 -1.3125 C 11.863281 -0.601562 11.582031 -0.0195312 11.1875 0.4375 C 10.800781 0.90625 10.335938 1.265625 9.796875 1.515625 C 9.265625 1.773438 8.679688 1.921875 8.046875 1.953125 C 7.410156 1.984375 6.75 1.921875 6.0625 1.765625 Z M 6.0625 1.765625 "/></g></g></g><g fill="#ffffff" fill-opacity="1"><g transform="translate(171.738848, 343.076859)"><g><path d="M 6.15625 0.484375 L 4.90625 0.375 C 4.613281 0.351562 4.476562 0.195312 4.5 -0.09375 L 5.609375 -14.28125 L 1.84375 -14.578125 C 1.550781 -14.597656 1.414062 -14.757812 1.4375 -15.0625 L 1.515625 -16.15625 C 1.546875 -16.457031 1.707031 -16.597656 2 -16.578125 L 11.65625 -15.8125 C 11.957031 -15.789062 12.09375 -15.628906 12.0625 -15.328125 L 11.984375 -14.234375 C 11.960938 -13.929688 11.800781 -13.789062 11.5 -13.8125 L 7.75 -14.109375 L 6.640625 0.078125 C 6.617188 0.367188 6.457031 0.503906 6.15625 0.484375 Z M 6.15625 0.484375 "/></g></g></g><g fill="#ffffff" fill-opacity="1"><g transform="translate(191.019967, 344.03966)"><g><path d="M 9.609375 -6.640625 L 12.734375 -1.59375 C 12.816406 -1.4375 12.832031 -1.304688 12.78125 -1.203125 C 12.726562 -1.097656 12.617188 -1.039062 12.453125 -1.03125 L 11.015625 -0.90625 C 10.785156 -0.882812 10.601562 -0.988281 10.46875 -1.21875 L 7.578125 -5.921875 C 7.347656 -5.878906 7.117188 -5.84375 6.890625 -5.8125 C 6.671875 -5.78125 6.4375 -5.753906 6.1875 -5.734375 L 3.3125 -5.5 L 3.703125 -0.75 C 3.722656 -0.457031 3.585938 -0.296875 3.296875 -0.265625 L 2.09375 -0.171875 C 1.800781 -0.148438 1.644531 -0.285156 1.625 -0.578125 L 0.3125 -16.296875 C 0.289062 -16.597656 0.425781 -16.757812 0.71875 -16.78125 L 5.09375 -17.140625 C 7.34375 -17.328125 9.03125 -16.976562 10.15625 -16.09375 C 11.28125 -15.207031 11.914062 -13.84375 12.0625 -12 C 12.28125 -9.425781 11.460938 -7.640625 9.609375 -6.640625 Z M 3.140625 -7.46875 L 5.75 -7.6875 C 5.96875 -7.695312 6.226562 -7.722656 6.53125 -7.765625 C 6.84375 -7.804688 7.164062 -7.875 7.5 -7.96875 C 7.84375 -8.070312 8.171875 -8.210938 8.484375 -8.390625 C 8.804688 -8.578125 9.085938 -8.816406 9.328125 -9.109375 C 9.578125 -9.410156 9.765625 -9.78125 9.890625 -10.21875 C 10.023438 -10.664062 10.066406 -11.203125 10.015625 -11.828125 C 9.960938 -12.429688 9.835938 -12.9375 9.640625 -13.34375 C 9.453125 -13.757812 9.210938 -14.09375 8.921875 -14.34375 C 8.628906 -14.59375 8.3125 -14.78125 7.96875 -14.90625 C 7.625 -15.03125 7.28125 -15.113281 6.9375 -15.15625 C 6.59375 -15.195312 6.265625 -15.207031 5.953125 -15.1875 C 5.640625 -15.175781 5.367188 -15.164062 5.140625 -15.15625 L 2.53125 -14.9375 Z M 3.140625 -7.46875 "/></g></g></g><g fill="#ffffff" fill-opacity="1"><g transform="translate(213.366726, 341.500222)"><g><path d="M 3.53125 -18.1875 L 14.34375 -4.34375 C 14.4375 -4.207031 14.46875 -4.085938 14.4375 -3.984375 C 14.40625 -3.878906 14.3125 -3.804688 14.15625 -3.765625 L 12.8125 -3.40625 C 12.695312 -3.375 12.585938 -3.375 12.484375 -3.40625 C 12.378906 -3.4375 12.296875 -3.503906 12.234375 -3.609375 L 10.296875 -6.171875 L 2.84375 -4.1875 L 2.40625 -1 C 2.382812 -0.75 2.253906 -0.59375 2.015625 -0.53125 L 0.671875 -0.1875 C 0.515625 -0.132812 0.390625 -0.144531 0.296875 -0.21875 C 0.210938 -0.289062 0.191406 -0.414062 0.234375 -0.59375 L 2.734375 -17.984375 C 2.765625 -18.234375 2.863281 -18.378906 3.03125 -18.421875 C 3.207031 -18.472656 3.375 -18.394531 3.53125 -18.1875 Z M 4.140625 -14.296875 L 3.078125 -6.171875 L 9.078125 -7.765625 Z M 4.140625 -14.296875 "/></g></g></g><g fill="#ffffff" fill-opacity="1"><g transform="translate(235.719546, 334.610869)"><g/></g></g><g fill="#ffffff" fill-opacity="1"><g transform="translate(248.835883, 328.658388)"><g><path d="M 2.828125 -1.71875 L 1.796875 -1.078125 C 1.546875 -0.929688 1.34375 -0.984375 1.1875 -1.234375 L -6.984375 -14.734375 C -7.140625 -14.992188 -7.09375 -15.195312 -6.84375 -15.34375 L -3.09375 -17.625 C -1.15625 -18.789062 0.507812 -19.226562 1.90625 -18.9375 C 3.3125 -18.644531 4.492188 -17.707031 5.453125 -16.125 C 6.429688 -14.5 6.71875 -12.992188 6.3125 -11.609375 C 5.914062 -10.234375 4.800781 -8.992188 2.96875 -7.890625 L 0.5 -6.390625 L 2.96875 -2.3125 C 3.125 -2.0625 3.078125 -1.863281 2.828125 -1.71875 Z M -4.40625 -14.484375 L -0.515625 -8.078125 L 1.71875 -9.4375 C 1.90625 -9.550781 2.125 -9.695312 2.375 -9.875 C 2.632812 -10.050781 2.894531 -10.253906 3.15625 -10.484375 C 3.414062 -10.722656 3.648438 -10.992188 3.859375 -11.296875 C 4.066406 -11.609375 4.207031 -11.953125 4.28125 -12.328125 C 4.363281 -12.703125 4.367188 -13.113281 4.296875 -13.5625 C 4.222656 -14.007812 4.023438 -14.503906 3.703125 -15.046875 C 3.378906 -15.566406 3.035156 -15.96875 2.671875 -16.25 C 2.316406 -16.53125 1.953125 -16.71875 1.578125 -16.8125 C 1.210938 -16.914062 0.847656 -16.941406 0.484375 -16.890625 C 0.128906 -16.847656 -0.210938 -16.769531 -0.546875 -16.65625 C -0.878906 -16.539062 -1.179688 -16.40625 -1.453125 -16.25 C -1.734375 -16.09375 -1.972656 -15.957031 -2.171875 -15.84375 Z M -4.40625 -14.484375 "/></g></g></g><g fill="#ffffff" fill-opacity="1"><g transform="translate(267.419118, 316.613733)"><g><path d="M -4.9375 -17.859375 L 10.90625 -10.265625 C 11.050781 -10.191406 11.132812 -10.097656 11.15625 -9.984375 C 11.175781 -9.878906 11.125 -9.769531 11 -9.65625 L 9.953125 -8.75 C 9.867188 -8.664062 9.773438 -8.613281 9.671875 -8.59375 C 9.566406 -8.582031 9.457031 -8.613281 9.34375 -8.6875 L 6.46875 -10.09375 L 0.671875 -5 L 1.71875 -1.984375 C 1.800781 -1.742188 1.75 -1.539062 1.5625 -1.375 L 0.53125 -0.46875 C 0.40625 -0.351562 0.285156 -0.3125 0.171875 -0.34375 C 0.0664062 -0.375 -0.0078125 -0.472656 -0.0625 -0.640625 L -5.546875 -17.328125 C -5.628906 -17.566406 -5.601562 -17.742188 -5.46875 -17.859375 C -5.332031 -17.972656 -5.15625 -17.972656 -4.9375 -17.859375 Z M -2.65625 -14.640625 L 0.015625 -6.90625 L 4.6875 -11 Z M -2.65625 -14.640625 "/></g></g></g><g fill="#ffffff" fill-opacity="1"><g transform="translate(284.586805, 300.425979)"><g><path d="M 4.234375 -4.6875 C 3.910156 -4.28125 3.550781 -3.894531 3.15625 -3.53125 C 2.769531 -3.175781 2.320312 -2.828125 1.8125 -2.484375 C 1.300781 -2.140625 0.703125 -1.796875 0.015625 -1.453125 C -0.253906 -1.335938 -0.453125 -1.414062 -0.578125 -1.6875 L -1.109375 -2.71875 C -1.234375 -2.988281 -1.148438 -3.1875 -0.859375 -3.3125 C 0.046875 -3.6875 0.769531 -4.085938 1.3125 -4.515625 C 1.863281 -4.953125 2.304688 -5.378906 2.640625 -5.796875 C 3.242188 -6.535156 3.566406 -7.242188 3.609375 -7.921875 C 3.648438 -8.609375 3.378906 -9.1875 2.796875 -9.65625 C 2.472656 -9.914062 2.109375 -10.070312 1.703125 -10.125 C 1.304688 -10.1875 0.882812 -10.164062 0.4375 -10.0625 C -0.0078125 -9.957031 -0.488281 -9.804688 -1 -9.609375 C -1.519531 -9.421875 -2.054688 -9.210938 -2.609375 -8.984375 C -3.179688 -8.765625 -3.742188 -8.5625 -4.296875 -8.375 C -4.859375 -8.1875 -5.414062 -8.0625 -5.96875 -8 C -6.53125 -7.945312 -7.082031 -7.988281 -7.625 -8.125 C -8.175781 -8.269531 -8.710938 -8.550781 -9.234375 -8.96875 C -9.804688 -9.4375 -10.210938 -9.9375 -10.453125 -10.46875 C -10.691406 -11 -10.800781 -11.546875 -10.78125 -12.109375 C -10.769531 -12.679688 -10.644531 -13.242188 -10.40625 -13.796875 C -10.164062 -14.359375 -9.84375 -14.894531 -9.4375 -15.40625 C -9.007812 -15.925781 -8.492188 -16.421875 -7.890625 -16.890625 C -7.285156 -17.359375 -6.632812 -17.773438 -5.9375 -18.140625 C -5.644531 -18.273438 -5.4375 -18.207031 -5.3125 -17.9375 L -4.765625 -16.953125 C -4.734375 -16.828125 -4.726562 -16.710938 -4.75 -16.609375 C -4.769531 -16.515625 -4.851562 -16.429688 -5 -16.359375 C -5.582031 -16.054688 -6.125 -15.71875 -6.625 -15.34375 C -7.132812 -14.976562 -7.5625 -14.582031 -7.90625 -14.15625 C -8.207031 -13.78125 -8.429688 -13.382812 -8.578125 -12.96875 C -8.734375 -12.5625 -8.769531 -12.164062 -8.6875 -11.78125 C -8.613281 -11.394531 -8.382812 -11.046875 -8 -10.734375 C -7.664062 -10.460938 -7.304688 -10.289062 -6.921875 -10.21875 C -6.535156 -10.15625 -6.128906 -10.15625 -5.703125 -10.21875 C -5.273438 -10.289062 -4.832031 -10.410156 -4.375 -10.578125 C -3.925781 -10.742188 -3.453125 -10.929688 -2.953125 -11.140625 C -2.503906 -11.316406 -2.039062 -11.5 -1.5625 -11.6875 C -1.082031 -11.875 -0.601562 -12.023438 -0.125 -12.140625 C 0.351562 -12.265625 0.828125 -12.332031 1.296875 -12.34375 C 1.773438 -12.351562 2.242188 -12.285156 2.703125 -12.140625 C 3.160156 -11.992188 3.609375 -11.742188 4.046875 -11.390625 C 4.617188 -10.929688 5.03125 -10.425781 5.28125 -9.875 C 5.53125 -9.320312 5.648438 -8.75 5.640625 -8.15625 C 5.640625 -7.5625 5.515625 -6.96875 5.265625 -6.375 C 5.015625 -5.789062 4.671875 -5.226562 4.234375 -4.6875 Z M 4.234375 -4.6875 "/></g></g></g><g fill="#ffffff" fill-opacity="1"><g transform="translate(296.900007, 284.170227)"><g><path d="M 5.109375 -8.78125 L 1.046875 -1.8125 C 0.898438 -1.5625 0.703125 -1.507812 0.453125 -1.65625 L -13.1875 -9.59375 C -13.445312 -9.738281 -13.503906 -9.9375 -13.359375 -10.1875 L -9.296875 -17.15625 C -9.148438 -17.40625 -8.945312 -17.457031 -8.6875 -17.3125 L -7.75 -16.75 C -7.488281 -16.601562 -7.429688 -16.40625 -7.578125 -16.15625 L -10.78125 -10.640625 L -4.375 -6.921875 L -1.609375 -11.6875 C -1.460938 -11.945312 -1.265625 -12.003906 -1.015625 -11.859375 L -0.09375 -11.3125 C 0.15625 -11.164062 0.207031 -10.960938 0.0625 -10.703125 L -2.703125 -5.9375 L 0.1875 -4.265625 L 3.390625 -9.78125 C 3.535156 -10.03125 3.734375 -10.082031 3.984375 -9.9375 L 4.953125 -9.375 C 5.203125 -9.226562 5.253906 -9.03125 5.109375 -8.78125 Z M 5.109375 -8.78125 "/></g></g></g><g fill="#ffffff" fill-opacity="1"><g transform="translate(306.232521, 266.926961)"><g><path d="M 2.609375 -5.75 C 2.421875 -5.269531 2.195312 -4.796875 1.9375 -4.328125 C 1.675781 -3.867188 1.351562 -3.394531 0.96875 -2.90625 C 0.59375 -2.425781 0.128906 -1.921875 -0.421875 -1.390625 C -0.648438 -1.191406 -0.863281 -1.203125 -1.0625 -1.421875 L -1.890625 -2.25 C -2.078125 -2.46875 -2.054688 -2.679688 -1.828125 -2.890625 C -1.066406 -3.523438 -0.488281 -4.128906 -0.09375 -4.703125 C 0.289062 -5.273438 0.582031 -5.816406 0.78125 -6.328125 C 1.125 -7.210938 1.207031 -7.984375 1.03125 -8.640625 C 0.863281 -9.304688 0.4375 -9.773438 -0.25 -10.046875 C -0.644531 -10.203125 -1.039062 -10.242188 -1.4375 -10.171875 C -1.84375 -10.109375 -2.242188 -9.957031 -2.640625 -9.71875 C -3.035156 -9.488281 -3.445312 -9.203125 -3.875 -8.859375 C -4.300781 -8.515625 -4.75 -8.148438 -5.21875 -7.765625 C -5.6875 -7.390625 -6.160156 -7.03125 -6.640625 -6.6875 C -7.117188 -6.34375 -7.613281 -6.054688 -8.125 -5.828125 C -8.632812 -5.609375 -9.171875 -5.476562 -9.734375 -5.4375 C -10.296875 -5.40625 -10.894531 -5.515625 -11.53125 -5.765625 C -12.207031 -6.035156 -12.738281 -6.382812 -13.125 -6.8125 C -13.519531 -7.238281 -13.789062 -7.722656 -13.9375 -8.265625 C -14.09375 -8.816406 -14.140625 -9.394531 -14.078125 -10 C -14.023438 -10.613281 -13.878906 -11.222656 -13.640625 -11.828125 C -13.398438 -12.453125 -13.0625 -13.078125 -12.625 -13.703125 C -12.195312 -14.335938 -11.707031 -14.9375 -11.15625 -15.5 C -10.914062 -15.71875 -10.695312 -15.707031 -10.5 -15.46875 L -9.6875 -14.703125 C -9.601562 -14.597656 -9.554688 -14.492188 -9.546875 -14.390625 C -9.546875 -14.285156 -9.601562 -14.175781 -9.71875 -14.0625 C -10.1875 -13.613281 -10.601562 -13.132812 -10.96875 -12.625 C -11.332031 -12.125 -11.613281 -11.613281 -11.8125 -11.09375 C -11.988281 -10.65625 -12.085938 -10.210938 -12.109375 -9.765625 C -12.128906 -9.328125 -12.046875 -8.9375 -11.859375 -8.59375 C -11.671875 -8.25 -11.34375 -7.984375 -10.875 -7.796875 C -10.476562 -7.640625 -10.082031 -7.585938 -9.6875 -7.640625 C -9.300781 -7.691406 -8.914062 -7.816406 -8.53125 -8.015625 C -8.144531 -8.210938 -7.757812 -8.457031 -7.375 -8.75 C -6.988281 -9.050781 -6.597656 -9.375 -6.203125 -9.71875 C -5.828125 -10.03125 -5.4375 -10.34375 -5.03125 -10.65625 C -4.632812 -10.976562 -4.222656 -11.269531 -3.796875 -11.53125 C -3.378906 -11.789062 -2.941406 -12 -2.484375 -12.15625 C -2.035156 -12.3125 -1.570312 -12.390625 -1.09375 -12.390625 C -0.613281 -12.390625 -0.109375 -12.289062 0.421875 -12.09375 C 1.097656 -11.820312 1.640625 -11.457031 2.046875 -11 C 2.453125 -10.550781 2.738281 -10.039062 2.90625 -9.46875 C 3.082031 -8.90625 3.140625 -8.304688 3.078125 -7.671875 C 3.023438 -7.046875 2.867188 -6.40625 2.609375 -5.75 Z M 2.609375 -5.75 "/></g></g></g></svg>