<svg xmlns="http://www.w3.org/2000/svg" xmlns:xlink="http://www.w3.org/1999/xlink" width="500" zoomAndPan="magnify" viewBox="0 0 375 374.999991" height="500" preserveAspectRatio="xMidYMid meet" version="1.0"><defs><clipPath id="5057101ebb"><path d="M 187.5 0 C 83.945312 0 0 83.945312 0 187.5 C 0 291.054688 83.945312 375 187.5 375 C 291.054688 375 375 291.054688 375 187.5 C 375 83.945312 291.054688 0 187.5 0 Z M 187.5 0 " clip-rule="nonzero"/></clipPath><clipPath id="26089528d5"><path d="M 91.496094 36.855469 L 282 36.855469 L 282 338.355469 L 91.496094 338.355469 Z M 91.496094 36.855469 " clip-rule="nonzero"/></clipPath></defs><g clip-path="url(#5057101ebb)"><rect x="-37.5" width="450" fill="#000000" y="-37.499999" height="449.999989" fill-opacity="1"/><path stroke-linecap="butt" transform="matrix(0.75, 0, 0, 0.75, 0.0000045, 0)" fill="none" stroke-linejoin="miter" d="M 249.999994 0 C 111.927078 0 -0.000006 111.927084 -0.000006 250 C -0.000006 388.072917 111.927078 500.000001 249.999994 500.000001 C 388.072911 500.000001 499.999995 388.072917 499.999995 250 C 499.999995 111.927084 388.072911 0 249.999994 0 Z M 249.999994 0 " stroke="#ffffff" stroke-width="12" stroke-opacity="1" stroke-miterlimit="4"/></g><g clip-path="url(#26089528d5)"><path fill="#ffffff" d="M 191.886719 36.855469 C 188.753906 41.003906 184.746094 44.828125 183.359375 49.996094 C 182.246094 54.28125 185.46875 57.898438 187.152344 61.542969 C 188.761719 58.898438 190.316406 56.21875 191.886719 53.550781 C 194.09375 56.003906 195.316406 59.195312 197.511719 61.6875 C 199.347656 57.640625 202.535156 52.9375 200.214844 48.445312 C 198.140625 44.164062 195.105469 40.273438 191.886719 36.855469 Z M 176.84375 56.03125 C 176.414062 56.035156 175.972656 56.089844 175.527344 56.199219 C 168.40625 58.210938 168.472656 69.207031 174.546875 72.503906 C 177.898438 74.203125 182.222656 75.710938 182.75 80.050781 C 186.359375 76.125 186.78125 67.917969 181.03125 65.847656 C 180.667969 67.289062 180.097656 69.058594 178.226562 68.746094 C 174.960938 68.574219 175.382812 63.421875 178.25 62.890625 C 180.441406 62.0625 182.414062 63.480469 184.265625 64.433594 C 184.210938 60.480469 181 55.980469 176.84375 56.03125 Z M 207.238281 56.074219 C 206.84375 56.070312 206.433594 56.105469 206.015625 56.183594 C 202.117188 56.933594 200.1875 60.988281 199.535156 64.53125 C 201.65625 63.246094 204.304688 61.636719 206.753906 63.152344 C 209.117188 64.148438 208.988281 68.292969 206.242188 68.601562 C 204.296875 69.007812 203.601562 66.910156 202.96875 65.535156 C 197.59375 67.976562 198.148438 75.484375 201.429688 79.492188 C 202.667969 73.296875 210.761719 74.289062 213.285156 69.085938 C 216.445312 64.269531 213.183594 56.082031 207.238281 56.074219 Z M 142.445312 58.800781 C 141.75 64.417969 142.242188 71.265625 147.585938 74.535156 C 147.730469 73.175781 147.640625 71.753906 148.175781 70.460938 C 150.558594 70.242188 151.726562 73.011719 153.566406 74.121094 C 153.464844 71.546875 153.949219 68.878906 153.34375 66.371094 C 150.972656 62.507812 146.492188 60.449219 142.445312 58.800781 Z M 241.847656 58.859375 C 241.699219 58.886719 241.398438 58.949219 241.246094 58.980469 C 237.910156 60.015625 234.757812 61.890625 232.34375 64.433594 C 229.648438 66.890625 231.277344 70.847656 230.734375 74.027344 C 232.410156 72.652344 233.808594 70.800781 235.898438 70.027344 C 236.804688 71.195312 237.277344 72.609375 237.992188 73.886719 C 242.285156 70.1875 242.546875 64.085938 241.847656 58.859375 Z M 191.886719 60.804688 C 190.570312 62.949219 188.925781 64.828125 187.113281 66.554688 C 189.671875 72.429688 187.015625 79.453125 181.949219 83.074219 C 176.976562 87.125 170.226562 88.03125 164.015625 87.464844 C 161.980469 87.121094 159.6875 86.574219 158.347656 84.871094 C 161.328125 85.230469 164.804688 85.824219 167.277344 83.65625 C 171.9375 79.441406 169.726562 70.480469 163.628906 68.945312 C 160.800781 67.953125 157.035156 69.097656 156.097656 72.15625 C 155.136719 74.597656 156.769531 77.765625 159.558594 77.679688 C 159.496094 76.203125 160.210938 74.265625 162.058594 74.84375 C 164.714844 75.292969 164.679688 79.53125 162.042969 80.007812 C 157.117188 80.871094 153.640625 76.398438 149.691406 74.453125 C 148.675781 75.265625 149.117188 77.207031 148.855469 78.476562 C 147.007812 77.011719 144.753906 74.753906 142.195312 75.742188 C 142.433594 77.21875 143.109375 78.652344 142.925781 80.175781 C 139.109375 80.089844 138.003906 72.855469 142.332031 72.316406 C 139.183594 67.519531 132.128906 67.445312 127.148438 68.90625 C 135.707031 75.429688 141.667969 85.191406 144.253906 95.597656 C 175.933594 87.882812 209.164062 88.894531 240.960938 95.222656 C 243.523438 84.960938 249.308594 75.449219 257.632812 68.875 C 252.472656 67.398438 245.058594 67.433594 242.082031 72.699219 C 246.445312 72.734375 245.429688 79.222656 242.378906 80.414062 C 240.269531 79.730469 241.945312 77.390625 242.394531 76.070312 C 239.945312 75.019531 237.582031 76.945312 235.90625 78.546875 C 235.886719 77.074219 236.019531 75.554688 235.527344 74.140625 C 231.148438 75.964844 227.6875 80.953125 222.390625 80.019531 C 219.652344 79.457031 219.753906 74.917969 222.742188 74.90625 C 225.132812 74.148438 224.3125 78.609375 226.453125 77.429688 C 229.449219 76.101562 228.859375 71.574219 226.597656 69.804688 C 223.476562 67.425781 218.621094 68.761719 216.523438 71.902344 C 213.828125 75.425781 214.164062 81.101562 217.660156 83.96875 C 220.449219 86.128906 224.132812 85.082031 227.269531 84.496094 C 222.597656 89.046875 215.164062 87.71875 209.328125 86.640625 C 200.871094 84.984375 193.550781 75.332031 197.390625 66.839844 C 195.671875 64.75 193.65625 62.871094 191.886719 60.804688 Z M 193.074219 94.890625 C 187.886719 94.894531 182.703125 95.011719 177.546875 95.160156 C 166.859375 95.8125 156.203125 97.289062 145.820312 99.925781 C 146.863281 103.773438 147.109375 108.050781 149.234375 111.441406 C 149.355469 112.96875 149.097656 114.703125 150.429688 115.792969 C 138.003906 125.460938 126.941406 136.914062 113.410156 145.132812 C 119.453125 146.332031 125.617188 146.230469 131.742188 146.265625 C 118.203125 160.40625 108.671875 178.164062 93.46875 190.730469 C 101.398438 191.222656 109.242188 189.890625 116.804688 187.582031 C 107.125 203.839844 100.542969 221.691406 91.550781 238.308594 C 101.960938 234.742188 111.453125 228.472656 119.105469 220.585938 C 118.207031 234.242188 120.25 248.308594 127.191406 260.28125 C 129.039062 250.191406 132.507812 240.246094 138.394531 231.78125 C 137.789062 250.757812 145.347656 269.09375 155.917969 284.527344 C 161.203125 291.5625 166.679688 298.691406 173.796875 303.980469 C 170.671875 291.433594 167.949219 278.421875 169.347656 265.441406 C 183.472656 298.554688 211.582031 325.152344 245.113281 338.113281 C 236.171875 324.023438 229.375 308.410156 225.96875 292.058594 C 229.152344 293.515625 232.316406 295.035156 235.609375 296.246094 C 232.996094 287.414062 230.777344 278.402344 229.996094 269.179688 C 240.824219 279.859375 255.066406 287.117188 270.199219 289.023438 C 260.042969 279.355469 252.332031 267.273438 247.304688 254.21875 C 257.554688 261.140625 269.214844 266.375 281.671875 267.40625 C 268.523438 253.507812 258.878906 236.070312 254.332031 217.484375 C 260.574219 218.351562 267.1875 218.21875 273.074219 215.761719 C 261.039062 212.394531 250.582031 203.585938 245.691406 192.03125 C 249.0625 192.996094 252.574219 193.414062 256.078125 193.175781 C 248.902344 188.972656 243.023438 181.097656 243.984375 172.429688 C 245.257812 163.710938 254.273438 156.847656 262.957031 157.828125 C 267.753906 159.824219 268.304688 166.242188 268.195312 170.804688 C 279.800781 161.488281 283.441406 143.964844 276.839844 130.679688 C 272.792969 121.296875 262.746094 114.605469 252.410156 115.5625 C 249.753906 115.996094 247.078125 116.148438 244.382812 116.167969 C 240.921875 116.988281 239.089844 113.261719 236.910156 111.285156 C 238.183594 107.6875 238.746094 103.613281 239.242188 99.980469 C 224.261719 95.835938 208.640625 94.867188 193.074219 94.890625 Z M 193.699219 100.457031 C 205.449219 100.527344 217.1875 101.761719 228.660156 104.335938 C 228.601562 105.550781 229.046875 108.5625 227.074219 107.816406 C 214.425781 105.234375 201.476562 104.933594 188.613281 105.074219 C 178.09375 104.761719 167.660156 106.289062 157.328125 108.070312 C 157.015625 106.824219 156.898438 105.53125 156.949219 104.246094 C 165.101562 102.097656 173.558594 101.332031 181.953125 100.769531 C 185.863281 100.539062 189.78125 100.433594 193.699219 100.457031 Z M 199.628906 112.933594 C 204.1875 112.902344 208.730469 113.101562 213.21875 114.054688 C 218.75 114.917969 223.957031 117.160156 229.492188 117.960938 C 226.714844 120.621094 223.867188 123.246094 221.636719 126.394531 C 218.324219 127.386719 215.132812 125.550781 211.90625 125.070312 C 212.558594 126.226562 213.367188 127.300781 213.867188 128.550781 C 209.488281 128.628906 205.292969 127.066406 201.054688 126.199219 C 194.097656 124.503906 187.484375 120.371094 180.144531 120.988281 C 181.699219 122.414062 184.046875 122.667969 185.621094 123.871094 C 177.84375 126.308594 169.550781 131.757812 163.40625 137.878906 C 169.144531 135.660156 175.304688 134.226562 181.492188 134.707031 C 179.125 136.296875 176.300781 137.078125 173.972656 138.753906 C 179.667969 139.566406 185.160156 141.417969 190.640625 143.148438 C 189.09375 144.039062 187.171875 144.21875 185.804688 145.40625 C 192.359375 147.222656 199.476562 147.6875 205.976562 145.417969 C 197.328125 153.128906 188.675781 160.988281 181.757812 170.378906 C 182.964844 164.921875 185.957031 160.058594 189.03125 155.460938 C 186.570312 155.902344 184.359375 157.117188 182.214844 158.34375 C 160.710938 170.601562 142.480469 188.808594 131.34375 211.011719 C 133.671875 188.289062 144.601562 165.53125 163.789062 152.398438 C 148.460938 155.183594 136.507812 166.707031 127.5625 178.796875 C 130.589844 168.617188 136.773438 159.570312 144.867188 152.738281 C 138.011719 154.871094 132.3125 159.574219 126.738281 163.945312 C 132.242188 153.253906 141.476562 144.984375 151.289062 138.308594 C 145.613281 137.746094 139.964844 138.699219 134.378906 139.546875 C 142.164062 132.777344 151.535156 127.949219 161.261719 124.71875 C 158.65625 123.96875 155.933594 123.863281 153.285156 123.359375 C 162.949219 117.125 174.636719 114.46875 185.964844 113.195312 C 190.507812 113.230469 195.078125 112.964844 199.632812 112.933594 Z M 249.726562 121.988281 C 257.054688 122.210938 264.421875 124.613281 268.269531 131.242188 C 272.410156 138.550781 273.855469 147.882812 270.109375 155.621094 C 266.933594 147.746094 257.96875 144.386719 250.023438 144.382812 C 234.804688 144.335938 219.757812 148.785156 206.238281 155.605469 C 208.699219 152.695312 211.769531 150.355469 214.066406 147.289062 C 219.671875 140.792969 222.65625 132.394531 228.863281 126.378906 C 232.007812 122.167969 237.941406 123.160156 242.542969 122.414062 C 244.847656 122.082031 247.285156 121.914062 249.726562 121.988281 Z M 236.320312 127.359375 C 236.15625 127.355469 235.855469 127.445312 235.359375 127.664062 C 232.773438 128.769531 230.644531 131.195312 230.03125 133.953125 C 229.984375 136.785156 231.636719 139.363281 233.414062 141.453125 C 233.5625 136.367188 237.507812 132.53125 241.503906 129.917969 C 239.453125 129.207031 237.269531 129.109375 235.125 129.316406 C 235.691406 128.589844 236.898438 127.378906 236.320312 127.359375 Z M 193.902344 129.421875 C 198.800781 129.140625 198.089844 135.707031 202.660156 135.9375 C 205.140625 136.578125 206.527344 134.078125 208.632812 133.515625 C 208.792969 137.914062 204.089844 140.8125 200.074219 140.089844 C 195.25 139.605469 191.792969 133.847656 193.902344 129.421875 Z M 234.773438 157.199219 C 228.699219 159.652344 222.316406 162.726562 218.574219 168.335938 C 221.777344 167.308594 224.953125 166.152344 228.273438 165.558594 C 221.125 170.804688 215.175781 177.503906 210.292969 184.875 C 211.199219 179.363281 214.066406 174.5 216.3125 169.511719 C 206.9375 171.296875 199.839844 178.71875 194.253906 186.019531 C 195.648438 178.066406 199.238281 170.378906 205.117188 164.757812 C 202.097656 164.898438 199.082031 165.261719 196.058594 165.222656 C 205.480469 159.539062 217.019531 158.761719 227.726562 157.371094 C 230.074219 157.226562 232.425781 157.214844 234.773438 157.203125 Z M 174.53125 169.617188 C 169.667969 180 166.742188 191.476562 166.90625 202.96875 C 171.996094 194.253906 177.949219 185.808594 185.519531 179.085938 C 181.152344 187.09375 176.988281 195.351562 174.738281 204.253906 C 170.71875 220.136719 168.957031 237.003906 172.542969 253.128906 C 164.1875 241.683594 160.707031 227.230469 159.667969 213.261719 C 154.167969 224.335938 150.714844 236.628906 150.777344 249.101562 C 144.949219 221.050781 153.003906 189.582031 174.320312 169.808594 Z M 191.335938 193.625 C 189.480469 201.398438 190.507812 209.40625 192.800781 216.917969 C 194.914062 209.988281 197.5625 203.085938 201.804688 197.164062 C 200.691406 202.097656 200.46875 207.183594 201.183594 212.1875 C 203.277344 207.867188 205.660156 203.671875 208.308594 199.664062 C 202.527344 223.726562 204.175781 250.273438 216.65625 272.03125 C 202.25 260.136719 194.042969 241.972656 191.300781 223.753906 C 188.347656 230.128906 188.847656 237.453125 188.558594 244.320312 C 183.535156 227.996094 184.105469 209.539062 191.1875 193.894531 Z M 233.203125 197.644531 C 234.671875 203.492188 238.160156 208.492188 241.316406 213.523438 C 242.546875 215.65625 241.074219 210.148438 242.136719 212.4375 C 245.292969 220.664062 249.308594 228.621094 254.890625 235.484375 C 241.1875 228.464844 233.710938 212.609375 233.203125 197.644531 Z M 215.554688 209.699219 C 217.679688 215.386719 219.683594 221.492188 224.257812 225.753906 C 224.035156 220.605469 224.765625 215.464844 225.804688 210.4375 C 226.84375 224.425781 231.347656 238.089844 238.425781 250.167969 C 224.628906 241.804688 216.304688 225.605469 215.554688 209.699219 Z M 215.554688 209.699219 " fill-opacity="1" fill-rule="nonzero"/></g></svg>