<svg xmlns="http://www.w3.org/2000/svg" xmlns:xlink="http://www.w3.org/1999/xlink" width="500" zoomAndPan="magnify" viewBox="0 0 375 374.999991" height="500" preserveAspectRatio="xMidYMid meet" version="1.0"><defs><clipPath id="51d2b923e8"><path d="M 187.5 0 C 83.945312 0 0 83.945312 0 187.5 C 0 291.054688 83.945312 375 187.5 375 C 291.054688 375 375 291.054688 375 187.5 C 375 83.945312 291.054688 0 187.5 0 Z M 187.5 0 " clip-rule="nonzero"/></clipPath><clipPath id="5718265229"><path d="M 91.496094 36.855469 L 282 36.855469 L 282 338.355469 L 91.496094 338.355469 Z M 91.496094 36.855469 " clip-rule="nonzero"/></clipPath></defs><g clip-path="url(#51d2b923e8)"><rect x="-37.5" width="450" fill="#ffffff" y="-37.499999" height="449.999989" fill-opacity="1"/><path stroke-linecap="butt" transform="matrix(0.75, 0, 0, 0.75, 0.0000045, 0)" fill="none" stroke-linejoin="miter" d="M 249.999994 0 C 111.927078 0 -0.000006 111.927084 -0.000006 250 C -0.000006 388.072917 111.927078 500.000001 249.999994 500.000001 C 388.072911 500.000001 499.999995 388.072917 499.999995 250 C 499.999995 111.927084 388.072911 0 249.999994 0 Z M 249.999994 0 " stroke="#ffffff" stroke-width="12" stroke-opacity="1" stroke-miterlimit="4"/></g><g clip-path="url(#5718265229)"><path fill="#000000" d="M 191.886719 36.855469 C 188.753906 41.007812 184.746094 44.832031 183.359375 50.003906 C 182.246094 54.292969 185.46875 57.914062 187.152344 61.5625 C 188.761719 58.914062 190.316406 56.234375 191.886719 53.5625 C 194.09375 56.015625 195.316406 59.214844 197.511719 61.707031 C 199.347656 57.65625 202.535156 52.949219 200.214844 48.453125 C 198.140625 44.171875 195.105469 40.273438 191.886719 36.855469 Z M 176.84375 56.046875 C 176.414062 56.050781 175.972656 56.105469 175.527344 56.214844 C 168.40625 58.226562 168.472656 69.230469 174.546875 72.527344 C 177.898438 74.230469 182.222656 75.738281 182.75 80.082031 C 186.359375 76.15625 186.78125 67.941406 181.03125 65.867188 C 180.667969 67.3125 180.097656 69.082031 178.226562 68.769531 C 174.960938 68.597656 175.382812 63.441406 178.25 62.910156 C 180.441406 62.082031 182.414062 63.5 184.265625 64.453125 C 184.210938 60.5 181 55.996094 176.84375 56.046875 Z M 207.238281 56.085938 C 206.84375 56.085938 206.433594 56.121094 206.015625 56.195312 C 202.117188 56.949219 200.1875 61.003906 199.535156 64.550781 C 201.65625 63.265625 204.304688 61.65625 206.753906 63.171875 C 209.117188 64.167969 208.988281 68.316406 206.242188 68.625 C 204.296875 69.03125 203.601562 66.929688 202.96875 65.558594 C 197.59375 68 198.148438 75.511719 201.429688 79.523438 C 202.667969 73.324219 210.761719 74.316406 213.285156 69.109375 C 216.445312 64.289062 213.183594 56.097656 207.238281 56.085938 Z M 142.445312 58.816406 C 141.75 64.4375 142.242188 71.292969 147.585938 74.566406 C 147.730469 73.203125 147.640625 71.777344 148.175781 70.484375 C 150.558594 70.269531 151.726562 73.039062 153.566406 74.148438 C 153.464844 71.574219 153.949219 68.902344 153.34375 66.394531 C 150.972656 62.527344 146.492188 60.464844 142.445312 58.816406 Z M 241.847656 58.875 C 241.699219 58.902344 241.398438 58.964844 241.246094 58.996094 C 237.910156 60.03125 234.757812 61.90625 232.34375 64.453125 C 229.648438 66.910156 231.277344 70.875 230.734375 74.054688 C 232.410156 72.675781 233.808594 70.828125 235.898438 70.050781 C 236.804688 71.21875 237.277344 72.636719 237.992188 73.914062 C 242.285156 70.210938 242.546875 64.109375 241.847656 58.875 Z M 191.886719 60.824219 C 190.570312 62.96875 188.925781 64.847656 187.113281 66.578125 C 189.671875 72.457031 187.015625 79.484375 181.949219 83.105469 C 176.976562 87.164062 170.226562 88.070312 164.015625 87.5 C 161.980469 87.160156 159.6875 86.613281 158.347656 84.90625 C 161.328125 85.265625 164.804688 85.863281 167.277344 83.6875 C 171.9375 79.472656 169.726562 70.503906 163.628906 68.96875 C 160.800781 67.976562 157.035156 69.121094 156.097656 72.183594 C 155.136719 74.625 156.769531 77.792969 159.558594 77.710938 C 159.496094 76.230469 160.210938 74.292969 162.058594 74.871094 C 164.714844 75.320312 164.679688 79.566406 162.042969 80.039062 C 157.117188 80.902344 153.640625 76.429688 149.691406 74.480469 C 148.675781 75.292969 149.117188 77.234375 148.855469 78.507812 C 147.007812 77.042969 144.753906 74.78125 142.195312 75.769531 C 142.433594 77.246094 143.109375 78.679688 142.925781 80.207031 C 139.109375 80.125 138.003906 72.882812 142.332031 72.34375 C 139.183594 67.542969 132.128906 67.46875 127.148438 68.929688 C 135.707031 75.457031 141.667969 85.226562 144.253906 95.640625 C 175.933594 87.921875 209.164062 88.933594 240.960938 95.265625 C 243.523438 84.996094 249.308594 75.476562 257.632812 68.898438 C 252.472656 67.421875 245.058594 67.457031 242.082031 72.726562 C 246.445312 72.761719 245.429688 79.253906 242.378906 80.449219 C 240.269531 79.761719 241.945312 77.421875 242.394531 76.097656 C 239.945312 75.046875 237.582031 76.972656 235.90625 78.578125 C 235.886719 77.101562 236.019531 75.585938 235.527344 74.167969 C 231.148438 75.996094 227.6875 80.984375 222.390625 80.050781 C 219.652344 79.488281 219.753906 74.945312 222.742188 74.933594 C 225.132812 74.175781 224.3125 78.640625 226.453125 77.460938 C 229.449219 76.132812 228.859375 71.601562 226.597656 69.832031 C 223.476562 67.449219 218.621094 68.785156 216.523438 71.925781 C 213.828125 75.453125 214.164062 81.136719 217.660156 84.003906 C 220.449219 86.167969 224.132812 85.117188 227.269531 84.53125 C 222.597656 89.085938 215.164062 87.757812 209.328125 86.675781 C 200.871094 85.023438 193.550781 75.359375 197.390625 66.863281 C 195.671875 64.769531 193.65625 62.890625 191.886719 60.824219 Z M 193.074219 94.933594 C 187.886719 94.9375 182.703125 95.054688 177.546875 95.203125 C 166.859375 95.855469 156.203125 97.335938 145.820312 99.972656 C 146.863281 103.824219 147.109375 108.105469 149.234375 111.496094 C 149.355469 113.023438 149.097656 114.761719 150.429688 115.851562 C 138.003906 125.523438 126.941406 136.988281 113.410156 145.214844 C 119.453125 146.414062 125.617188 146.308594 131.742188 146.347656 C 118.203125 160.496094 108.671875 178.265625 93.46875 190.84375 C 101.398438 191.335938 109.242188 190 116.804688 187.691406 C 107.125 203.964844 100.542969 221.828125 91.550781 238.457031 C 101.960938 234.890625 111.453125 228.613281 119.105469 220.722656 C 118.207031 234.386719 120.25 248.464844 127.191406 260.445312 C 129.039062 250.347656 132.507812 240.394531 138.394531 231.925781 C 137.789062 250.914062 145.347656 269.265625 155.917969 284.707031 C 161.203125 291.753906 166.679688 298.882812 173.796875 304.175781 C 170.671875 291.625 167.949219 278.601562 169.347656 265.609375 C 183.472656 298.746094 211.582031 325.367188 245.113281 338.335938 C 236.171875 324.234375 229.375 308.609375 225.96875 292.246094 C 229.152344 293.703125 232.316406 295.226562 235.609375 296.4375 C 232.996094 287.597656 230.777344 278.582031 229.996094 269.351562 C 240.824219 280.039062 255.066406 287.300781 270.199219 289.210938 C 260.042969 279.535156 252.332031 267.445312 247.304688 254.378906 C 257.554688 261.304688 269.214844 266.546875 281.671875 267.578125 C 268.523438 253.667969 258.878906 236.21875 254.332031 217.617188 C 260.574219 218.484375 267.1875 218.351562 273.074219 215.894531 C 261.039062 212.527344 250.582031 203.707031 245.691406 192.144531 C 249.0625 193.109375 252.574219 193.527344 256.078125 193.292969 C 248.902344 189.085938 243.023438 181.203125 243.984375 172.527344 C 245.257812 163.804688 254.273438 156.9375 262.957031 157.914062 C 267.753906 159.914062 268.304688 166.335938 268.195312 170.902344 C 279.800781 161.582031 283.441406 144.046875 276.839844 130.75 C 272.792969 121.359375 262.746094 114.660156 252.410156 115.621094 C 249.753906 116.054688 247.078125 116.207031 244.382812 116.226562 C 240.921875 117.046875 239.089844 113.316406 236.910156 111.339844 C 238.183594 107.738281 238.746094 103.664062 239.242188 100.027344 C 224.261719 95.878906 208.640625 94.910156 193.074219 94.929688 Z M 193.699219 100.503906 C 205.449219 100.574219 217.1875 101.808594 228.660156 104.386719 C 228.601562 105.601562 229.046875 108.613281 227.074219 107.867188 C 214.425781 105.285156 201.476562 104.984375 188.613281 105.125 C 178.09375 104.8125 167.660156 106.339844 157.328125 108.125 C 157.015625 106.875 156.898438 105.582031 156.949219 104.296875 C 165.101562 102.144531 173.558594 101.378906 181.953125 100.816406 C 185.863281 100.585938 189.78125 100.480469 193.699219 100.503906 Z M 199.628906 112.992188 C 204.1875 112.957031 208.730469 113.15625 213.21875 114.113281 C 218.75 114.976562 223.957031 117.21875 229.492188 118.019531 C 226.714844 120.683594 223.867188 123.308594 221.636719 126.460938 C 218.324219 127.453125 215.132812 125.617188 211.90625 125.136719 C 212.558594 126.292969 213.367188 127.367188 213.867188 128.617188 C 209.488281 128.695312 205.292969 127.132812 201.054688 126.265625 C 194.097656 124.570312 187.484375 120.433594 180.144531 121.050781 C 181.699219 122.476562 184.046875 122.730469 185.621094 123.933594 C 177.84375 126.375 169.550781 131.828125 163.40625 137.953125 C 169.144531 135.734375 175.304688 134.300781 181.492188 134.777344 C 179.125 136.371094 176.300781 137.152344 173.972656 138.828125 C 179.667969 139.640625 185.160156 141.496094 190.640625 143.226562 C 189.09375 144.117188 187.171875 144.300781 185.804688 145.488281 C 192.359375 147.304688 199.476562 147.769531 205.976562 145.5 C 197.328125 153.214844 188.675781 161.082031 181.757812 170.476562 C 182.964844 165.015625 185.957031 160.148438 189.03125 155.550781 C 186.570312 155.992188 184.359375 157.203125 182.214844 158.433594 C 160.710938 170.703125 142.480469 188.921875 131.34375 211.140625 C 133.671875 188.398438 144.601562 165.625 163.789062 152.484375 C 148.460938 155.269531 136.507812 166.800781 127.5625 178.902344 C 130.589844 168.714844 136.773438 159.660156 144.867188 152.824219 C 138.011719 154.960938 132.3125 159.664062 126.738281 164.039062 C 132.242188 153.339844 141.476562 145.0625 151.289062 138.382812 C 145.613281 137.820312 139.964844 138.777344 134.378906 139.621094 C 142.164062 132.847656 151.535156 128.019531 161.261719 124.785156 C 158.65625 124.035156 155.933594 123.929688 153.285156 123.421875 C 162.949219 117.183594 174.636719 114.527344 185.964844 113.25 C 190.507812 113.285156 195.078125 113.023438 199.632812 112.988281 Z M 249.726562 122.050781 C 257.054688 122.273438 264.421875 124.675781 268.269531 131.3125 C 272.410156 138.625 273.855469 147.964844 270.109375 155.707031 C 266.933594 147.828125 257.96875 144.46875 250.023438 144.464844 C 234.804688 144.414062 219.757812 148.867188 206.238281 155.691406 C 208.699219 152.78125 211.769531 150.4375 214.066406 147.371094 C 219.671875 140.871094 222.65625 132.464844 228.863281 126.445312 C 232.007812 122.230469 237.941406 123.226562 242.542969 122.476562 C 244.847656 122.144531 247.285156 121.976562 249.726562 122.050781 Z M 236.320312 127.429688 C 236.15625 127.421875 235.855469 127.511719 235.359375 127.730469 C 232.773438 128.835938 230.644531 131.261719 230.03125 134.027344 C 229.984375 136.859375 231.636719 139.441406 233.414062 141.53125 C 233.5625 136.441406 237.507812 132.601562 241.503906 129.984375 C 239.453125 129.277344 237.269531 129.179688 235.125 129.382812 C 235.691406 128.660156 236.898438 127.445312 236.320312 127.429688 Z M 193.902344 129.488281 C 198.800781 129.207031 198.089844 135.78125 202.660156 136.011719 C 205.140625 136.652344 206.527344 134.152344 208.632812 133.589844 C 208.792969 137.988281 204.089844 140.890625 200.074219 140.167969 C 195.25 139.679688 191.792969 133.917969 193.902344 129.488281 Z M 234.773438 157.289062 C 228.699219 159.742188 222.316406 162.820312 218.574219 168.433594 C 221.777344 167.40625 224.953125 166.25 228.273438 165.65625 C 221.125 170.902344 215.175781 177.609375 210.292969 184.984375 C 211.199219 179.46875 214.066406 174.601562 216.3125 169.609375 C 206.9375 171.398438 199.839844 178.820312 194.253906 186.132812 C 195.648438 178.171875 199.238281 170.476562 205.117188 164.851562 C 202.097656 164.992188 199.082031 165.359375 196.058594 165.316406 C 205.480469 159.632812 217.019531 158.851562 227.726562 157.457031 C 230.074219 157.3125 232.425781 157.300781 234.773438 157.289062 Z M 174.53125 169.714844 C 169.667969 180.105469 166.742188 191.59375 166.90625 203.09375 C 171.996094 194.371094 177.949219 185.917969 185.519531 179.191406 C 181.152344 187.207031 176.988281 195.46875 174.738281 204.378906 C 170.71875 220.273438 168.957031 237.152344 172.542969 253.289062 C 164.1875 241.832031 160.707031 227.371094 159.667969 213.394531 C 154.167969 224.472656 150.714844 236.777344 150.777344 249.257812 C 144.949219 221.1875 153.003906 189.695312 174.320312 169.90625 Z M 191.335938 193.738281 C 189.480469 201.519531 190.507812 209.535156 192.800781 217.050781 C 194.914062 210.117188 197.5625 203.210938 201.804688 197.28125 C 200.691406 202.21875 200.46875 207.308594 201.183594 212.316406 C 203.277344 207.992188 205.660156 203.796875 208.308594 199.785156 C 202.527344 223.863281 204.175781 250.429688 216.65625 272.203125 C 202.25 260.300781 194.042969 242.125 191.300781 223.890625 C 188.347656 230.273438 188.847656 237.601562 188.558594 244.472656 C 183.535156 228.136719 184.105469 209.667969 191.1875 194.011719 Z M 233.203125 197.765625 C 234.671875 203.613281 238.160156 208.617188 241.316406 213.652344 C 242.546875 215.785156 241.074219 210.277344 242.136719 212.566406 C 245.292969 220.796875 249.308594 228.761719 254.890625 235.632812 C 241.1875 228.605469 233.710938 212.738281 233.203125 197.765625 Z M 215.554688 209.828125 C 217.679688 215.519531 219.683594 221.628906 224.257812 225.894531 C 224.035156 220.742188 224.765625 215.597656 225.804688 210.566406 C 226.84375 224.5625 231.347656 238.238281 238.425781 250.328125 C 224.628906 241.957031 216.304688 225.746094 215.554688 209.828125 Z M 215.554688 209.828125 " fill-opacity="1" fill-rule="nonzero"/></g></svg>